<svg width="55" height="55" viewBox="0 0 55 55" fill="none" xmlns="http://www.w3.org/2000/svg">
<path d="M25.2085 13.75H29.7918V9.16671H25.2085V13.75ZM27.5002 27.5C24.5974 27.5 21.8283 26.8981 19.1929 25.6942C16.5575 24.4903 13.9793 23.1443 11.4585 21.6563V18.3334C11.4585 17.073 11.9077 15.9943 12.806 15.0975C13.7043 14.2007 14.7829 13.7516 16.0418 13.75H20.6252V6.87504C20.6252 6.22574 20.8452 5.68185 21.2852 5.24337C21.7252 4.8049 22.2691 4.5849 22.9168 4.58337H32.0835C32.7328 4.58337 33.2775 4.80337 33.7175 5.24337C34.1575 5.68337 34.3767 6.22726 34.3752 6.87504V13.75H38.9585C40.2189 13.75 41.2983 14.1992 42.1966 15.0975C43.095 15.9959 43.5434 17.0745 43.5418 18.3334V21.6563C41.021 23.1459 38.4429 24.4926 35.8075 25.6965C33.172 26.9004 30.4029 27.5016 27.5002 27.5ZM16.0418 48.125C14.7814 48.125 13.7028 47.6766 12.806 46.7798C11.9092 45.883 11.46 44.8037 11.4585 43.5417V26.8125C13.5974 28.1112 15.8035 29.2188 18.0768 30.1355C20.3502 31.0521 22.7274 31.6632 25.2085 31.9688V32.0834C25.2085 32.7327 25.4285 33.2773 25.8685 33.7173C26.3085 34.1573 26.8524 34.3766 27.5002 34.375C28.1479 34.3735 28.6926 34.1535 29.1341 33.715C29.5756 33.2766 29.7949 32.7327 29.7918 32.0834V31.9688C32.2745 31.6632 34.6525 31.0521 36.9258 30.1355C39.1991 29.2188 41.4045 28.1112 43.5418 26.8125V43.5417C43.5418 44.8021 43.0934 45.8815 42.1966 46.7798C41.2998 47.6782 40.2204 48.1266 38.9585 48.125C38.9585 48.7743 38.7385 49.319 38.2985 49.759C37.8585 50.199 37.3146 50.4182 36.6668 50.4167C36.0557 50.4167 35.6264 50.1394 35.3789 49.5848C35.1314 49.0302 34.7968 48.5437 34.3752 48.125H20.6252C20.6252 48.7743 20.4052 49.319 19.9652 49.759C19.5252 50.199 18.9813 50.4182 18.3335 50.4167C17.7224 50.4167 17.2931 50.1394 17.0456 49.5848C16.7981 49.0302 16.4635 48.5437 16.0418 48.125Z" fill="#1CA8CB"/>
</svg>
