<svg width="55" height="55" viewBox="0 0 55 55" fill="none" xmlns="http://www.w3.org/2000/svg">
<path d="M38.9585 43.5417H43.5418V25.2083H29.7918V43.5417H34.3752V29.7917H38.9585V43.5417ZM6.87516 43.5417V9.16667C6.87516 8.55888 7.11661 7.97598 7.54638 7.54621C7.97615 7.11644 8.55904 6.875 9.16683 6.875H41.2502C41.8579 6.875 42.4408 7.11644 42.8706 7.54621C43.3004 7.97598 43.5418 8.55888 43.5418 9.16667V20.625H48.1252V43.5417H50.4168V48.125H4.5835V43.5417H6.87516ZM16.0418 25.2083V29.7917H20.6252V25.2083H16.0418ZM16.0418 34.375V38.9583H20.6252V34.375H16.0418ZM16.0418 16.0417V20.625H20.6252V16.0417H16.0418Z" fill="#1CA8CB"/>
</svg>
