<svg width="55" height="55" viewBox="0 0 55 55" fill="none" xmlns="http://www.w3.org/2000/svg">
<path d="M26.1939 22.1604C26.2856 22.4124 26.3543 22.6416 26.3543 22.9166V34.8791C26.3543 36.0249 25.9189 37.1249 25.1397 37.9729L18.746 44.9624L10.9543 37.1708L13.7502 34.3749L20.1668 6.55411C20.3067 5.94201 20.6673 5.40293 21.1796 5.0399C21.6919 4.67688 22.32 4.51538 22.9438 4.58628C23.5677 4.65717 24.1436 4.95549 24.5613 5.4242C24.9791 5.89291 25.2095 6.49914 25.2085 7.12702V18.4937C24.8349 18.392 24.4498 18.3381 24.0627 18.3333C21.5418 18.3333 19.4793 20.3958 19.4793 22.9166V29.7916C19.4793 30.4333 19.9835 30.9374 20.6252 30.9374C21.2668 30.9374 21.771 30.4333 21.771 29.7916V22.9166C21.771 21.6562 22.8022 20.6249 24.0627 20.6249C24.4981 20.6249 24.8647 20.7854 25.2085 20.9916C25.4835 21.152 25.6897 21.3583 25.896 21.5874C25.9647 21.6791 26.0335 21.7708 26.0793 21.8854C26.1252 21.977 26.171 22.0687 26.1939 22.1604ZM4.5835 43.5416L13.7502 50.4166L16.4314 47.5062L8.52516 39.5999L4.5835 43.5416ZM41.2502 34.3749L34.8335 6.55411C34.6936 5.94201 34.3331 5.40293 33.8208 5.0399C33.3085 4.67688 32.6804 4.51538 32.0565 4.58628C31.4326 4.65717 30.8568 4.95549 30.439 5.4242C30.0212 5.89291 29.7908 6.49914 29.7918 7.12702V18.4937C30.1585 18.402 30.5481 18.3333 30.9377 18.3333C33.4585 18.3333 35.521 20.3958 35.521 22.9166V29.7916C35.521 30.4333 35.0168 30.9374 34.3752 30.9374C33.7335 30.9374 33.2293 30.4333 33.2293 29.7916V22.9166C33.2293 21.6562 32.1981 20.6249 30.9377 20.6249C30.5022 20.6249 30.1356 20.7854 29.7918 20.9916C29.5168 21.152 29.3106 21.3583 29.1272 21.5874C29.0585 21.6791 28.9668 21.7708 28.921 21.8854C28.8752 21.977 28.8293 22.0687 28.8064 22.1604C28.7147 22.4124 28.646 22.6416 28.646 22.9166V34.8791C28.646 36.0249 29.0814 37.1249 29.8606 37.9729L36.2543 44.9624L44.046 37.1708L41.2502 34.3749ZM46.4752 39.5999L38.5689 47.5062L41.2502 50.4166L50.4168 43.5416L46.4752 39.5999Z" fill="#1CA8CB"/>
</svg>
