<svg width="55" height="55" viewBox="0 0 55 55" fill="none" xmlns="http://www.w3.org/2000/svg">
<path d="M16.4888 6.51976C16.4067 6.13484 16.1949 5.78977 15.889 5.54219C15.583 5.29462 15.2014 5.15955 14.8078 5.15955C14.4142 5.15955 14.0326 5.29462 13.7266 5.54219C13.4207 5.78977 13.209 6.13484 13.1269 6.51976C12.5952 9.03142 11.8665 10.725 10.8581 11.9304C9.875 13.1129 8.5 13.9768 6.38938 14.6025C6.0342 14.7079 5.72258 14.9253 5.50099 15.2222C5.27939 15.5191 5.15967 15.8797 5.15967 16.2502C5.15967 16.6207 5.27939 16.9813 5.50099 17.2782C5.72258 17.5751 6.0342 17.7925 6.38938 17.8979C8.4175 18.4983 9.78105 19.3118 10.7802 20.476C11.7977 21.6585 12.5723 23.3635 13.1269 25.9806C13.209 26.3655 13.4207 26.7106 13.7266 26.9582C14.0326 27.2057 14.4142 27.3408 14.8078 27.3408C15.2014 27.3408 15.583 27.2057 15.889 26.9582C16.1949 26.7106 16.4067 26.3655 16.4888 25.9806C17.0433 23.3612 17.8179 21.6585 18.8354 20.476C19.8346 19.3118 21.1958 18.4983 23.2285 17.8979C23.5837 17.7925 23.8953 17.5751 24.1169 17.2782C24.3385 16.9813 24.4583 16.6207 24.4583 16.2502C24.4583 15.8797 24.3385 15.5191 24.1169 15.2222C23.8953 14.9253 23.5837 14.7079 23.2285 14.6025C21.1981 14.002 19.8346 13.1885 18.8354 12.0243C17.8179 10.8418 17.0433 9.13684 16.4888 6.51976ZM35.5165 13.97C35.4259 13.5952 35.2118 13.2617 34.9088 13.0232C34.6058 12.7848 34.2314 12.6551 33.8458 12.6551C33.4602 12.6551 33.0858 12.7848 32.7828 13.0232C32.4798 13.2617 32.2658 13.5952 32.1752 13.97C30.9056 19.2225 29.5604 22.3895 27.656 24.5987C25.7769 26.7804 23.1942 28.2104 19.0165 29.622C18.6759 29.7372 18.38 29.9562 18.1704 30.2483C17.9609 30.5403 17.8481 30.8908 17.8481 31.2503C17.8481 31.6098 17.9609 31.9602 18.1704 32.2523C18.38 32.5444 18.6759 32.7634 19.0165 32.8785C23.3798 34.3521 25.9969 35.9081 27.844 38.131C29.7208 40.3906 30.9652 43.5279 32.1752 48.5283C32.2658 48.9031 32.4798 49.2365 32.7828 49.475C33.0858 49.7135 33.4602 49.8432 33.8458 49.8432C34.2314 49.8432 34.6058 49.7135 34.9088 49.475C35.2118 49.2365 35.4259 48.9031 35.5165 48.5283C36.786 43.2781 38.1335 40.111 40.0356 37.9018C41.9148 35.7202 44.4975 34.2902 48.6752 32.8785C49.0158 32.7634 49.3117 32.5444 49.5212 32.2523C49.7308 31.9602 49.8435 31.6098 49.8435 31.2503C49.8435 30.8908 49.7308 30.5403 49.5212 30.2483C49.3117 29.9562 49.0158 29.7372 48.6752 29.622C44.305 28.1462 41.6925 26.597 39.8477 24.3741C37.9731 22.1191 36.731 18.9841 35.5165 13.97Z" fill="#1CA8CB"/>
</svg>
