<svg width="55" height="55" viewBox="0 0 55 55" fill="none" xmlns="http://www.w3.org/2000/svg">
<path d="M22.7448 48.4114L17.0729 37.8698L6.53125 32.1979L10.599 28.1875L18.9063 29.6198L24.75 23.776L6.58854 16.0416L11.401 11.1145L33.4583 15.0104L40.5625 7.90621C41.441 7.02774 42.5295 6.5885 43.8281 6.5885C45.1267 6.5885 46.2153 7.02774 47.0938 7.90621C47.9722 8.78468 48.4115 9.86329 48.4115 11.142C48.4115 12.4208 47.9722 13.5002 47.0938 14.3802L39.9323 21.5416L43.8281 43.5416L38.9583 48.4114L31.1667 30.25L25.3229 36.0937L26.8125 44.3437L22.7448 48.4114Z" fill="#1CA8CB"/>
</svg>
