<svg width="22" height="22" viewBox="0 0 22 22" fill="none" xmlns="http://www.w3.org/2000/svg">
<path d="M15.125 6.35938C14.9388 6.35938 14.7777 6.29134 14.6416 6.15527C14.5055 6.01921 14.4375 5.85807 14.4375 5.67188C14.4375 5.30664 14.5055 4.95573 14.6416 4.61914C14.7777 4.28255 14.9782 3.98535 15.2432 3.72754L16.0918 2.86816C16.3639 2.59603 16.5 2.27018 16.5 1.89062C16.5 1.70443 16.568 1.54329 16.7041 1.40723C16.8402 1.27116 17.0013 1.20312 17.1875 1.20312C17.3737 1.20312 17.5348 1.27116 17.6709 1.40723C17.807 1.54329 17.875 1.70443 17.875 1.89062C17.875 2.25586 17.807 2.60677 17.6709 2.94336C17.5348 3.27995 17.3343 3.57715 17.0693 3.83496L16.2207 4.69434C15.9486 4.96647 15.8125 5.29232 15.8125 5.67188C15.8125 5.85807 15.7445 6.01921 15.6084 6.15527C15.4723 6.29134 15.3112 6.35938 15.125 6.35938ZM11 6.35938C10.8138 6.35938 10.6527 6.29134 10.5166 6.15527C10.3805 6.01921 10.3125 5.85807 10.3125 5.67188C10.3125 5.30664 10.3805 4.95573 10.5166 4.61914C10.6527 4.28255 10.8532 3.98535 11.1182 3.72754L11.9668 2.86816C12.2389 2.59603 12.375 2.27018 12.375 1.89062C12.375 1.70443 12.443 1.54329 12.5791 1.40723C12.7152 1.27116 12.8763 1.20312 13.0625 1.20312C13.2487 1.20312 13.4098 1.27116 13.5459 1.40723C13.682 1.54329 13.75 1.70443 13.75 1.89062C13.75 2.25586 13.682 2.60677 13.5459 2.94336C13.4098 3.27995 13.2093 3.57715 12.9443 3.83496L12.0957 4.69434C11.8236 4.96647 11.6875 5.29232 11.6875 5.67188C11.6875 5.85807 11.6195 6.01921 11.4834 6.15527C11.3473 6.29134 11.1862 6.35938 11 6.35938ZM19.9375 8.25C20.224 8.25 20.4925 8.30371 20.7432 8.41113C20.9938 8.51855 21.2122 8.66536 21.3984 8.85156C21.5846 9.03776 21.7314 9.25618 21.8389 9.50684C21.9463 9.75749 22 10.026 22 10.3125V14.4375C22 14.724 21.9463 14.9925 21.8389 15.2432C21.7314 15.4938 21.5846 15.7122 21.3984 15.8984C21.2122 16.0846 20.9938 16.2314 20.7432 16.3389C20.4925 16.4463 20.224 16.5 19.9375 16.5H19.3252C19.3109 16.5501 19.3001 16.5967 19.293 16.6396C19.2858 16.6826 19.2715 16.7256 19.25 16.7686V17.1875C19.25 17.6602 19.1605 18.1042 18.9814 18.5195C18.8024 18.9349 18.5553 19.3001 18.2402 19.6152C17.9251 19.9303 17.5599 20.1774 17.1445 20.3564C16.7292 20.5355 16.2852 20.625 15.8125 20.625H11.6875C11.1289 20.625 10.6133 20.4997 10.1406 20.249C9.66797 19.9984 9.27409 19.6654 8.95898 19.25H3.58789C3.11523 19.25 2.67122 19.1605 2.25586 18.9814C1.84049 18.8024 1.47526 18.5589 1.16016 18.251C0.845052 17.943 0.597982 17.5778 0.418945 17.1553C0.239909 16.7327 0.150391 16.2852 0.150391 15.8125V15.125H2.90039C2.90039 14.5592 3.00781 14.0257 3.22266 13.5244C3.4375 13.0231 3.7347 12.5863 4.11426 12.2139C4.49381 11.8415 4.93066 11.5443 5.4248 11.3223C5.91895 11.1003 6.45247 10.9928 7.02539 11C7.24023 11 7.44792 11.0179 7.64844 11.0537C7.84896 11.0895 8.04948 11.1396 8.25 11.2041V6.875H19.25V8.25H19.9375ZM7.02539 12.375C6.64583 12.375 6.29134 12.4466 5.96191 12.5898C5.63249 12.7331 5.33887 12.93 5.08105 13.1807C4.82324 13.4313 4.6263 13.7214 4.49023 14.0508C4.35417 14.3802 4.28255 14.7383 4.27539 15.125H8.25V12.6758C8.0638 12.5827 7.87044 12.5111 7.66992 12.4609C7.4694 12.4108 7.25456 12.3822 7.02539 12.375ZM3.58789 17.875H8.3252C8.27507 17.6673 8.25 17.4382 8.25 17.1875V16.5H1.64355C1.71517 16.7005 1.81543 16.8831 1.94434 17.0479C2.07324 17.2126 2.22005 17.3594 2.38477 17.4883C2.54948 17.6172 2.73568 17.7103 2.94336 17.7676C3.15104 17.8249 3.36589 17.8607 3.58789 17.875ZM8.56152 18.5947V18.6055L8.57227 18.627V18.6162L8.56152 18.5947ZM17.875 17.1875V8.25H9.625V17.1875C9.625 17.474 9.67871 17.7425 9.78613 17.9932C9.89355 18.2438 10.0404 18.4622 10.2266 18.6484C10.4128 18.8346 10.6312 18.9814 10.8818 19.0889C11.1325 19.1963 11.401 19.25 11.6875 19.25H15.8125C16.099 19.25 16.3675 19.1963 16.6182 19.0889C16.8688 18.9814 17.0872 18.8346 17.2734 18.6484C17.4596 18.4622 17.6064 18.2438 17.7139 17.9932C17.8213 17.7425 17.875 17.474 17.875 17.1875ZM20.625 14.4375V10.3125C20.625 10.1263 20.557 9.96517 20.4209 9.8291C20.2848 9.69303 20.1237 9.625 19.9375 9.625H19.25V15.125H19.9375C20.1237 15.125 20.2848 15.057 20.4209 14.9209C20.557 14.7848 20.625 14.6237 20.625 14.4375Z" fill="#1CA8CB"/>
</svg>
