<svg width="51" height="31" viewBox="0 0 51 31" fill="none" xmlns="http://www.w3.org/2000/svg">
<g clip-path="url(#clip0_325_11602)">
<path d="M13.5903 23.9076C17.559 23.9076 20.7763 20.6904 20.7763 16.7216C20.7763 12.7529 17.559 9.53564 13.5903 9.53564C9.62158 9.53564 6.4043 12.7529 6.4043 16.7216C6.4043 20.6904 9.62158 23.9076 13.5903 23.9076Z" fill="#E0F9FF"/>
<path d="M15.1731 4.89364H9.8641C9.70349 4.90116 9.54254 4.89446 9.38311 4.87364C9.19618 4.85446 9.02358 4.76479 8.90041 4.62286C8.77725 4.48093 8.71278 4.29742 8.72012 4.10965C8.7022 3.92135 8.75725 3.73337 8.87393 3.5845C8.9906 3.43563 9.15998 3.33724 9.3471 3.30964C9.48951 3.28343 9.63444 3.27336 9.77911 3.27964C13.3831 3.27964 16.9868 3.27964 20.5901 3.27964C20.7347 3.27374 20.8794 3.28278 21.0221 3.30664C21.2084 3.33069 21.3783 3.42533 21.4969 3.57103C21.6154 3.71672 21.6735 3.90237 21.6591 4.08964C21.6709 4.27714 21.6106 4.46206 21.4905 4.60652C21.3704 4.75098 21.1996 4.84405 21.0131 4.86665C20.8539 4.88997 20.6928 4.89733 20.5321 4.88864L15.1731 4.89364Z" fill="#113D48"/>
<path d="M19.6733 2.4624C18.5013 2.4624 17.3283 2.4624 16.1563 2.4624C15.5673 2.4624 15.2093 2.16239 15.1913 1.68539C15.1733 1.20839 15.5543 0.844402 16.1513 0.842402C18.48 0.835736 20.8083 0.835736 23.1363 0.842402C23.7523 0.842402 24.1033 1.16638 24.0903 1.67938C24.0783 2.17438 23.7403 2.4604 23.1413 2.4624C21.9853 2.4654 20.8293 2.4624 19.6733 2.4624Z" fill="#113D48"/>
<path d="M49.9512 21.6542C49.7593 20.1877 49.1329 18.8122 48.1528 17.7046C47.1726 16.597 45.8835 15.8081 44.4512 15.4392C43.172 15.1824 41.862 15.115 40.5632 15.2392C39.9222 15.2817 39.2808 15.164 38.6967 14.8967C38.1125 14.6294 37.6041 14.221 37.2172 13.7082C35.4941 11.6369 33.3455 9.96061 30.9172 8.79319C29.3925 7.95217 27.7009 7.45809 25.9632 7.3462C20.1572 7.2892 14.3512 7.3202 8.54523 7.3272C8.19417 7.29884 7.84111 7.34694 7.51044 7.46818C7.17976 7.58942 6.87934 7.78092 6.62982 8.02949C6.3803 8.27806 6.18763 8.57777 6.06512 8.90798C5.94262 9.23819 5.8932 9.59103 5.92023 9.94219C5.92825 10.1485 5.86106 10.3507 5.7312 10.5112C3.5872 13.2032 1.5632 15.9682 0.606201 19.3492V22.9212C0.615941 23.1312 0.647467 23.3397 0.700226 23.5432C0.987226 25.0932 1.45322 26.2732 2.93222 26.8952C3.02492 26.9355 3.10769 26.9956 3.17471 27.0712C3.24174 27.1469 3.2914 27.2363 3.32022 27.3332C3.68771 28.2377 4.28571 29.0303 5.05469 29.6319C5.82367 30.2335 6.73681 30.6232 7.70322 30.7622C8.6696 30.9013 9.65558 30.7849 10.563 30.4245C11.4704 30.0642 12.2676 29.4724 12.8752 28.7082C12.9459 28.606 13.0418 28.5239 13.1536 28.4697C13.2654 28.4156 13.3892 28.3913 13.5132 28.3992C20.9605 28.4085 28.4079 28.4085 35.8552 28.3992C35.9791 28.3906 36.1031 28.4143 36.2151 28.4679C36.3271 28.5215 36.4232 28.6033 36.4942 28.7052C37.0258 29.3793 37.706 29.9213 38.4818 30.2889C39.2576 30.6565 40.1079 30.8397 40.9662 30.8242C41.8247 30.8087 42.6679 30.5948 43.43 30.1992C44.1921 29.8037 44.8524 29.2373 45.3592 28.5442C45.4387 28.4268 45.5444 28.3296 45.668 28.2602C45.7916 28.1907 45.9296 28.151 46.0712 28.1442C47.0302 28.0442 47.9872 27.9242 48.9472 27.8352C49.1613 27.8371 49.3725 27.7859 49.5619 27.686C49.7512 27.5862 49.9129 27.4409 50.0322 27.2632V21.8572C49.9925 21.7954 49.9649 21.7264 49.9512 21.6542ZM32.8942 12.1932C33.0363 12.1849 33.1785 12.206 33.312 12.2552C33.4456 12.3045 33.5675 12.3807 33.6702 12.4792C34.1222 12.9062 34.5982 13.3082 35.0632 13.7202L34.9972 13.8202H31.6282C27.6552 13.8202 23.6832 13.8152 19.7112 13.8292C19.3402 13.8292 19.1832 13.7492 19.2372 13.3592C19.2912 12.9692 19.0722 12.4772 19.3272 12.2592C19.5422 12.0742 20.0272 12.2002 20.3982 12.1992L32.8982 12.1912L32.8942 12.1932ZM19.2322 15.8152C19.2242 15.4932 19.3202 15.4152 19.6322 15.4152C22.0752 15.4272 24.5192 15.4222 26.9622 15.4222C29.3732 15.4222 31.7852 15.4312 34.1962 15.4132C34.5652 15.4132 34.6632 15.5132 34.6462 15.8722C34.7042 17.1239 34.6541 18.3782 34.4962 19.6212C34.2647 20.7068 33.6724 21.6822 32.8159 22.3883C31.9594 23.0945 30.8891 23.4899 29.7792 23.5102C27.8832 23.5489 25.9865 23.5489 24.0892 23.5102C22.8147 23.4762 21.6019 22.9542 20.7013 22.0518C19.8006 21.1495 19.2808 19.9357 19.2492 18.6612C19.2232 17.7132 19.2572 16.7642 19.2322 15.8152ZM8.50021 29.1992C7.97768 29.1994 7.46024 29.0966 6.97754 28.8965C6.49483 28.6964 6.05636 28.403 5.68723 28.0332C5.31799 27.6633 5.02537 27.2241 4.82614 26.7409C4.62692 26.2577 4.52499 25.7399 4.52621 25.2172C4.52526 24.6946 4.6276 24.1769 4.82736 23.694C5.02712 23.2111 5.32036 22.7724 5.69022 22.4032C6.06012 22.034 6.49932 21.7416 6.98257 21.5427C7.46583 21.3438 7.98364 21.2424 8.50623 21.2442C9.0289 21.2432 9.54662 21.3454 10.0297 21.545C10.5128 21.7446 10.9517 22.0376 11.3212 22.4072C11.6907 22.7768 11.9835 23.2158 12.1829 23.6988C12.3823 24.1819 12.4843 24.6996 12.4832 25.2222C12.483 25.7449 12.3797 26.2625 12.1794 26.7454C11.9791 27.2282 11.6856 27.6668 11.3157 28.0362C10.9459 28.4057 10.5068 28.6986 10.0237 28.8983C9.54065 29.098 9.02296 29.2006 8.50021 29.2002V29.1992ZM40.8532 29.1992C40.3306 29.1976 39.8135 29.093 39.3315 28.8912C38.8495 28.6894 38.412 28.3944 38.0442 28.0232C37.6764 27.652 37.3854 27.2118 37.188 26.7279C36.9907 26.2439 36.8909 25.7258 36.8942 25.2032C36.8947 24.6807 36.9984 24.1634 37.1996 23.6812C37.4007 23.1989 37.6953 22.7612 38.0662 22.3932C38.4372 22.0253 38.8772 21.7344 39.361 21.5372C39.8448 21.34 40.3628 21.2404 40.8852 21.2442C41.4076 21.2447 41.9247 21.3485 42.4068 21.5496C42.8889 21.7508 43.3264 22.0453 43.6942 22.4162C44.062 22.7872 44.3528 23.2272 44.5498 23.711C44.7468 24.1948 44.8462 24.7128 44.8422 25.2352C44.842 25.758 44.7384 26.2755 44.5374 26.7581C44.3365 27.2407 44.0421 27.6788 43.6712 28.0472C43.3005 28.4157 42.8606 28.7072 42.3768 28.9051C41.893 29.103 41.3749 29.2033 40.8522 29.2002L40.8532 29.1992ZM48.0532 26.3072C47.5878 26.3349 47.1244 26.3893 46.6652 26.4702C46.3882 26.5152 46.3352 26.4292 46.3832 26.1702C46.5087 25.4367 46.4872 24.6856 46.32 23.9605C46.1528 23.2354 45.8432 22.5507 45.4092 21.9462C44.9754 21.3417 44.4258 20.8294 43.7924 20.439C43.1589 20.0486 42.4542 19.788 41.7192 19.6722C40.2733 19.4698 38.8051 19.8324 37.6196 20.6846C36.4342 21.5368 35.6228 22.8131 35.3542 24.2482C35.2285 25.0837 35.2703 25.936 35.4772 26.7552H13.9052C14.156 25.8768 14.1862 24.9501 13.9933 24.0572C13.8004 23.1643 13.3903 22.3327 12.7992 21.6362C12.3454 21.0689 11.7808 20.5999 11.1399 20.2577C10.499 19.9156 9.79515 19.7076 9.07123 19.6462C8.31437 19.5709 7.55008 19.6499 6.82462 19.8783C6.09915 20.1068 5.42758 20.4801 4.85046 20.9755C4.27335 21.4709 3.8027 22.0782 3.46698 22.7607C3.13126 23.4432 2.93743 24.1867 2.89722 24.9462C2.72471 24.7995 2.5861 24.6172 2.49097 24.4117C2.39583 24.2063 2.34645 23.9826 2.34622 23.7562C2.29922 22.4692 2.28422 21.1832 2.23422 19.8962C2.21822 19.4962 2.3452 19.3712 2.7532 19.3962C3.3472 19.4372 3.94321 19.4172 4.53821 19.4032C5.13321 19.3892 5.46222 19.0732 5.45422 18.5742C5.44622 18.0752 5.11022 17.7942 4.50922 17.7872C4.25222 17.7872 3.99421 17.7872 3.73721 17.7872H2.89023C3.44171 16.5884 4.10178 15.4426 4.86221 14.3642C5.55081 13.3355 6.29699 12.3466 7.0972 11.4022C7.25292 11.2314 7.37316 11.0313 7.45093 10.8137C7.52869 10.596 7.56244 10.365 7.5502 10.1342C7.5242 9.16919 7.76921 8.9412 8.73221 8.9412H25.3812C27.2491 9.0309 29.0643 9.58977 30.6592 10.5662H30.1592H11.3882C11.2132 10.5375 11.0337 10.5577 10.8695 10.6248C10.7054 10.6919 10.563 10.8031 10.4582 10.9462C10.3731 11.0653 10.3255 11.207 10.3216 11.3533C10.3177 11.4996 10.3576 11.6437 10.4362 11.7672C10.8956 12.6084 11.5178 13.3499 12.2665 13.9483C13.0152 14.5468 13.8755 14.9904 14.7972 15.2532C15.5863 15.4148 16.3936 15.4693 17.1972 15.4152C17.5442 15.4042 17.6172 15.5202 17.6202 15.8482C17.5805 17.0054 17.5995 18.1639 17.6772 19.3192C17.8672 20.8887 18.6126 22.3384 19.7786 23.406C20.9445 24.4737 22.4541 25.0888 24.0342 25.1402C25.9642 25.1682 27.8946 25.1682 29.8252 25.1402C31.4888 25.0922 33.0731 24.4182 34.2613 23.2528C35.4495 22.0874 36.1541 20.5166 36.2342 18.8542C36.2702 17.8422 36.2432 16.8282 36.2522 15.8142C36.2522 15.6822 36.1742 15.5032 36.3622 15.4352C36.4327 15.4171 36.507 15.4199 36.5759 15.4433C36.6448 15.4668 36.7054 15.5098 36.7502 15.5672C37.2379 16.0115 37.8092 16.3544 38.4306 16.5758C39.0521 16.7973 39.7114 16.893 40.3702 16.8572C41.6213 16.7492 42.8813 16.807 44.1172 17.0292C45.3758 17.3656 46.4816 18.122 47.2512 19.1732C47.0172 19.1962 46.8362 19.2062 46.6572 19.2352C46.4643 19.2623 46.2884 19.3601 46.1635 19.5096C46.0386 19.659 45.9736 19.8496 45.9812 20.0442C45.9841 20.2394 46.0604 20.4263 46.1949 20.5677C46.3295 20.7091 46.5124 20.7946 46.7072 20.8072C46.995 20.8426 47.286 20.8446 47.5742 20.8132C48.0332 20.7472 48.2052 20.9592 48.2612 21.3712C48.3326 21.7342 48.3787 22.1018 48.3992 22.4712C48.3992 23.6132 48.3992 24.7552 48.4112 25.8972C48.4112 26.1752 48.3522 26.2972 48.0462 26.3092L48.0532 26.3072ZM16.2772 13.8072C15.6146 13.8098 14.9594 13.6672 14.3578 13.3894C13.7563 13.1116 13.2229 12.7053 12.7952 12.1992C14.3952 12.1992 15.8882 12.1992 17.3802 12.1992C17.5742 12.1992 17.6422 12.2692 17.6192 12.4512C17.6182 12.4672 17.6182 12.4832 17.6192 12.4992C17.5542 14.1722 17.9912 13.8142 16.2772 13.8132V13.8072Z" fill="#113D48"/>
<path d="M40.8493 22.4153C40.4799 22.4158 40.1142 22.4897 39.7735 22.6325C39.4328 22.7753 39.1238 22.9843 38.8643 23.2473C38.6044 23.5107 38.3993 23.8232 38.2611 24.1665C38.1229 24.5099 38.0544 24.8772 38.0593 25.2473C38.0654 25.9932 38.367 26.7062 38.8981 27.23C39.4292 27.7538 40.1464 28.0456 40.8923 28.0413C41.2619 28.0392 41.6273 27.964 41.9677 27.82C42.308 27.676 42.6165 27.4661 42.8753 27.2023C43.1341 26.9382 43.338 26.6256 43.4753 26.2823C43.6127 25.939 43.6806 25.572 43.6753 25.2023C43.6752 24.833 43.6017 24.4675 43.459 24.1269C43.3163 23.7863 43.1074 23.4774 42.8443 23.2183C42.5815 22.959 42.2699 22.7545 41.9274 22.6166C41.5849 22.4788 41.2185 22.4103 40.8493 22.4153ZM40.8493 26.4073C40.6931 26.4071 40.5384 26.3754 40.3947 26.3143C40.2509 26.2531 40.1209 26.1637 40.0123 26.0513C39.9037 25.9389 39.8188 25.8058 39.7626 25.66C39.7064 25.5141 39.6801 25.3585 39.6853 25.2023C39.6866 25.046 39.719 24.8916 39.7804 24.7479C39.8419 24.6042 39.9313 24.4742 40.0433 24.3653C40.1554 24.2563 40.288 24.1707 40.4334 24.1134C40.5788 24.056 40.7341 24.0281 40.8903 24.0313C41.0467 24.0342 41.2009 24.0679 41.3442 24.1305C41.4875 24.1932 41.617 24.2835 41.7253 24.3963C41.8336 24.5091 41.9187 24.6421 41.9755 24.7878C42.0323 24.9335 42.0598 25.0889 42.0563 25.2453C42.0559 25.4016 42.024 25.5562 41.9627 25.7C41.9013 25.8438 41.8118 25.9738 41.6993 26.0823C41.5867 26.1908 41.4535 26.2756 41.3074 26.3316C41.1614 26.3876 41.0056 26.4127 40.8493 26.4073Z" fill="#113D48"/>
<path d="M8.50632 22.4156C8.13684 22.4126 7.77045 22.4832 7.42847 22.6231C7.08649 22.763 6.77575 22.9695 6.51432 23.2306C6.25301 23.4918 6.0462 23.8023 5.90595 24.1441C5.76569 24.4859 5.6948 24.8522 5.69733 25.2216C5.69559 25.591 5.76696 25.9571 5.90735 26.2989C6.04774 26.6406 6.25437 26.9511 6.51532 27.2126C6.77589 27.4745 7.08569 27.6822 7.42688 27.8238C7.76808 27.9654 8.13392 28.038 8.50333 28.0376C9.24945 28.0358 9.96453 27.7388 10.4925 27.2116C11.0205 26.6844 11.3184 25.9697 11.3213 25.2236C11.322 24.8541 11.2496 24.4881 11.1081 24.1468C10.9667 23.8054 10.7591 23.4954 10.4973 23.2346C10.2359 22.9735 9.9254 22.7667 9.58368 22.6261C9.24197 22.4855 8.87581 22.414 8.50632 22.4156ZM8.50632 26.4076C8.34988 26.4092 8.19468 26.3797 8.04966 26.321C7.90463 26.2623 7.77265 26.1755 7.66132 26.0656C7.55015 25.9557 7.46181 25.825 7.4014 25.6808C7.34099 25.5366 7.3097 25.3819 7.30933 25.2256C7.31064 24.9094 7.43668 24.6065 7.66007 24.3828C7.88346 24.159 8.18614 24.0325 8.50232 24.0306C8.65858 24.0297 8.81345 24.0598 8.95798 24.1192C9.10252 24.1786 9.23383 24.2661 9.3443 24.3766C9.45475 24.4873 9.54213 24.6188 9.60135 24.7635C9.66058 24.9082 9.69047 25.0633 9.68931 25.2196C9.69174 25.3759 9.66282 25.5312 9.60425 25.6761C9.54568 25.8211 9.45865 25.9529 9.3483 26.0636C9.23794 26.1741 9.10662 26.2613 8.96201 26.3203C8.8174 26.3792 8.66246 26.4095 8.50632 26.4076Z" fill="#113D48"/>
</g>
<defs>
<clipPath id="clip0_325_11602">
<rect width="49.427" height="29.99" fill="white" transform="translate(0.606201 0.837402)"/>
</clipPath>
</defs>
</svg>
