<svg width="18" height="19" viewBox="0 0 18 19" fill="none" xmlns="http://www.w3.org/2000/svg">
<path fill-rule="evenodd" clip-rule="evenodd" d="M9 18.4185C10.1819 18.4185 11.3522 18.1857 12.4442 17.7334C13.5361 17.2811 14.5282 16.6181 15.364 15.7824C16.1997 14.9467 16.8626 13.9545 17.3149 12.8626C17.7672 11.7707 18 10.6004 18 9.41846C18 8.23656 17.7672 7.06624 17.3149 5.97431C16.8626 4.88238 16.1997 3.89022 15.364 3.0545C14.5282 2.21877 13.5361 1.55583 12.4442 1.10354C11.3522 0.651249 10.1819 0.418457 9 0.418457C6.61305 0.418457 4.32387 1.36667 2.63604 3.0545C0.948212 4.74232 0 7.03151 0 9.41846C0 11.8054 0.948212 14.0946 2.63604 15.7824C4.32387 17.4702 6.61305 18.4185 9 18.4185ZM8.768 13.0585L13.768 7.05846L12.232 5.77846L7.932 10.9375L5.707 8.71146L4.293 10.1255L7.293 13.1255L8.067 13.8995L8.768 13.0585Z" fill="#1CA8CB"/>
</svg>
