<svg width="17" height="18" viewBox="0 0 17 18" fill="none" xmlns="http://www.w3.org/2000/svg">
<path fill-rule="evenodd" clip-rule="evenodd" d="M8.64648 17.0903C9.72989 17.0903 10.8027 16.8769 11.8036 16.4623C12.8046 16.0477 13.714 15.44 14.4801 14.674C15.2462 13.9079 15.8539 12.9984 16.2685 11.9975C16.6831 10.9965 16.8965 9.92374 16.8965 8.84033C16.8965 7.75693 16.6831 6.68413 16.2685 5.68319C15.8539 4.68226 15.2462 3.77278 14.4801 3.0067C13.714 2.24062 12.8046 1.63293 11.8036 1.21833C10.8027 0.803724 9.72989 0.590332 8.64648 0.590332C6.45845 0.590332 4.36003 1.45953 2.81285 3.0067C1.26568 4.55388 0.396484 6.6523 0.396484 8.84033C0.396484 11.0284 1.26568 13.1268 2.81285 14.674C4.36003 16.2211 6.45845 17.0903 8.64648 17.0903ZM8.43382 12.177L13.0172 6.677L11.6092 5.50366L7.66748 10.2327L5.6279 8.19225L4.33173 9.48842L7.08173 12.2384L7.79123 12.9479L8.43382 12.177Z" fill="white"/>
</svg>
