<svg width="19" height="19" viewBox="0 0 19 19" fill="none" xmlns="http://www.w3.org/2000/svg">
<path d="M9.53361 0.670898C8.32982 0.670898 7.13783 0.908001 6.02568 1.36867C4.91353 1.82934 3.903 2.50455 3.0518 3.35575C1.33271 5.07484 0.366943 7.40641 0.366943 9.83756C0.366943 12.2687 1.33271 14.6003 3.0518 16.3194C3.903 17.1706 4.91353 17.8458 6.02568 18.3065C7.13783 18.7671 8.32982 19.0042 9.53361 19.0042C11.9648 19.0042 14.2963 18.0385 16.0154 16.3194C17.7345 14.6003 18.7003 12.2687 18.7003 9.83756C18.7003 8.63378 18.4632 7.44178 18.0025 6.32963C17.5418 5.21748 16.8666 4.20696 16.0154 3.35575C15.1642 2.50455 14.1537 1.82934 13.0415 1.36867C11.9294 0.908001 10.7374 0.670898 9.53361 0.670898ZM13.3836 13.6876L8.61694 10.7542V5.25423H9.99194V10.0209L14.1169 12.4959L13.3836 13.6876Z" fill="#1CA8CB"/>
</svg>
