<svg width="24" height="24" viewBox="0 0 24 24" fill="none" xmlns="http://www.w3.org/2000/svg">
<g clip-path="url(#clip0_423_18528)">
<path d="M4.34043 0.984375C2.84043 0.984375 1.33855 2.10938 1.33855 4.35938L4.34043 10.3594L7.34043 4.35938C7.34043 2.10938 5.84043 0.984375 4.34043 0.984375ZM17.5732 2.8125C17.2498 2.82609 16.9357 2.8875 16.6732 2.94375L16.8514 3.76875C17.1139 3.71016 17.3857 3.67313 17.6154 3.65625L17.5732 2.8125ZM4.34043 2.85938C5.17012 2.85938 5.84043 3.53109 5.84043 4.35938C5.84043 5.18906 5.17012 5.85938 4.34043 5.85938C3.51215 5.85938 2.84043 5.18906 2.84043 4.35938C2.84043 3.53109 3.51215 2.85938 4.34043 2.85938ZM18.5061 2.86875L18.3654 3.69844C18.5951 3.74672 18.8248 3.80719 19.0264 3.92813L19.4342 3.1875C19.1482 3.03516 18.8295 2.89828 18.5061 2.86875ZM15.8107 3.18281C15.5248 3.29438 15.2389 3.39422 14.9951 3.49219L15.3279 4.26562C15.5857 4.15594 15.8576 4.06031 16.0873 3.97969L15.8107 3.18281ZM20.2029 3.81094L19.5607 4.35938C19.7295 4.5525 19.8607 4.79063 19.9639 4.98281L20.7186 4.60312C20.5592 4.29609 20.4186 4.06359 20.2029 3.81094ZM14.2123 3.85312C13.9264 3.99891 13.692 4.12875 13.4389 4.25625L13.8514 4.99687C14.0951 4.85625 14.3623 4.72031 14.5779 4.6125L14.2123 3.85312ZM12.6982 4.69219C12.4498 4.8375 12.2061 4.98281 11.967 5.14219L12.4264 5.84531C12.6561 5.69531 12.8951 5.55469 13.1295 5.41406L12.6982 4.69219ZM21.0092 5.53125C20.7326 5.57812 20.4514 5.61094 20.1748 5.64375C20.1936 5.87813 20.1795 6.13125 20.1326 6.32812L20.9529 6.52031C20.9998 6.18281 21.042 5.83594 21.0092 5.53125ZM11.2545 5.61094C11.0201 5.77031 10.7904 5.93437 10.5561 6.09375L11.0436 6.78281C11.2686 6.61875 11.4982 6.46406 11.7279 6.30469L11.2545 5.61094ZM9.86699 6.6C9.63262 6.76875 9.38887 6.95625 9.18731 7.11094L9.69824 7.78125C9.95606 7.59375 10.1342 7.45312 10.3686 7.27969L9.86699 6.6ZM19.8514 6.975C19.7107 7.19063 19.5467 7.40625 19.3826 7.57031L19.9967 8.15625C20.1982 7.91719 20.4139 7.67344 20.5639 7.42969L19.8514 6.975ZM8.51699 7.63594C8.28731 7.81406 8.05762 7.99687 7.85606 8.16562L8.39043 8.81719C8.61074 8.63438 8.83574 8.44688 9.04199 8.29688L8.51699 7.63594ZM18.8014 8.10938C18.5857 8.28281 18.3607 8.45156 18.1545 8.59219L18.6373 9.28594C18.8857 9.11719 19.1295 8.93437 19.3404 8.76562L18.8014 8.10938ZM7.20449 8.71406C6.98418 8.89219 6.77324 9.07969 6.55762 9.2625L7.10606 9.90469C7.31699 9.72188 7.52793 9.53906 7.74356 9.36094L7.20449 8.71406ZM17.4654 9.04219C17.2264 9.18281 16.9779 9.32812 16.7529 9.45L17.1561 10.1953C17.4092 10.0406 17.6951 9.90469 17.9061 9.76406L17.4654 9.04219ZM5.91543 9.82031C5.70449 10.0078 5.49824 10.1953 5.2873 10.3875L5.85449 11.0156C6.06074 10.8281 6.27168 10.6406 6.47793 10.4531L5.91543 9.82031ZM16.017 9.83906C15.7686 9.96094 15.5201 10.0875 15.2717 10.2094L15.6326 10.9688C15.9232 10.8281 16.1389 10.7109 16.4014 10.5891L16.017 9.83906ZM14.517 10.5609C14.2592 10.6781 14.0107 10.7906 13.7482 10.8984L14.0904 11.6719C14.3482 11.5594 14.6061 11.4422 14.8639 11.325L14.517 10.5609ZM4.66855 10.9688C4.42949 11.1797 4.26309 11.3438 4.04512 11.5547L4.64043 12.1641C4.86074 11.9531 5.03887 11.7703 5.24512 11.5922L4.66855 10.9688ZM12.9795 11.2406C12.7217 11.3484 12.4639 11.4609 12.2061 11.5688L12.5342 12.3516C12.7967 12.2437 13.0545 12.1312 13.3123 12.0187L12.9795 11.2406ZM11.4279 11.8969C11.1701 12.0094 10.9123 12.1219 10.6498 12.225L10.9779 13.0078C11.2357 12.9 11.4982 12.7875 11.7561 12.6797L11.4279 11.8969ZM20.0904 12.2344C18.5904 12.2344 17.0904 13.3594 17.0904 15.6094L20.0904 21.6094L23.0904 15.6094C23.0904 13.3594 21.5904 12.2344 20.0904 12.2344ZM9.87168 12.5531C9.60449 12.675 9.32324 12.7875 9.09356 12.8859L9.42637 13.6641C9.70293 13.5469 9.96543 13.4344 10.1998 13.3312L9.87168 12.5531ZM8.31543 13.2188C8.06231 13.3359 7.76699 13.4672 7.54199 13.5703L7.88887 14.3391C8.16543 14.2172 8.40918 14.0953 8.65293 13.9922L8.31543 13.2188ZM6.76855 13.9219C6.50605 14.0484 6.23418 14.1797 5.9998 14.2969L6.37949 15.0516C6.63262 14.9203 6.89512 14.7984 7.12481 14.6859L6.76855 13.9219ZM20.0904 14.1094C20.9201 14.1094 21.5904 14.7797 21.5904 15.6094C21.5904 16.4391 20.9201 17.1094 20.0904 17.1094C19.2607 17.1094 18.5904 16.4391 18.5904 15.6094C18.5904 14.7797 19.2607 14.1094 20.0904 14.1094ZM5.24043 14.6859C4.99199 14.8219 4.74356 14.9625 4.49043 15.1078L4.9123 15.8391C5.15137 15.6984 5.39512 15.5672 5.63887 15.4359L5.24043 14.6859ZM3.75449 15.5625C3.49152 15.7125 3.23746 15.9141 3.01855 16.0594L3.52949 16.7344C3.76246 16.5656 4.01324 16.3922 4.21387 16.2703L3.75449 15.5625ZM2.35293 16.6219C2.12793 16.8281 1.90621 17.0672 1.73418 17.2687L2.37637 17.8172C2.55684 17.5969 2.71387 17.4328 2.9248 17.2453L2.35293 16.6219ZM12.5623 16.6828L12.6373 17.5219C12.8811 17.4797 13.1248 17.5078 13.3686 17.5453L13.5139 16.7156C13.2045 16.6688 12.8764 16.6359 12.5623 16.6828ZM10.8186 17.1516L11.1373 17.9344C11.3811 17.8266 11.6342 17.7422 11.892 17.6625C11.8029 17.3953 11.7373 17.1234 11.667 16.8516C11.3717 16.9359 11.0764 17.0484 10.8186 17.1516ZM14.4514 17.1094L13.9732 17.8031C14.1701 17.9484 14.3623 18.1031 14.517 18.2953L15.1545 17.7422C14.9154 17.4984 14.7326 17.2687 14.4514 17.1094ZM10.0217 17.5312C9.76387 17.6625 9.51543 17.8125 9.26699 17.9578L9.69356 18.6844C9.93731 18.5531 10.1764 18.3984 10.4154 18.2719L10.0217 17.5312ZM1.21902 18.0469C1.07746 18.3516 0.962617 18.6797 0.90918 18.9703L1.73887 19.1156C1.78949 18.8484 1.86215 18.6562 1.96855 18.4266C1.71121 18.3141 1.46559 18.1781 1.21902 18.0469ZM8.53574 18.4125C8.29668 18.5672 8.06231 18.7219 7.82793 18.8812L8.29668 19.5844C8.53106 19.4297 8.76074 19.2703 8.99512 19.1156L8.53574 18.4125ZM15.6936 18.4688L14.9857 18.9281C15.1357 19.1531 15.2811 19.3875 15.417 19.6266L16.1482 19.2047C15.9842 18.9422 15.867 18.7078 15.6936 18.4688ZM7.12949 19.3594C6.89512 19.5141 6.66074 19.6641 6.43106 19.8281L6.89981 20.5312C7.1248 20.3672 7.36387 20.2125 7.60293 20.0531L7.12949 19.3594ZM1.74824 19.8047C1.47684 19.8609 1.20309 19.9078 0.930273 19.9594C0.979492 20.2875 1.11121 20.6063 1.23027 20.8594L1.99199 20.4938C1.89027 20.2594 1.79371 20.0156 1.74824 19.8047ZM16.5654 19.9359L15.8342 20.3578C15.9795 20.6109 16.1482 20.8828 16.2842 21.0984L16.992 20.6437C16.8326 20.3953 16.6967 20.1609 16.5654 19.9359ZM5.73731 20.2875C5.50293 20.4328 5.27324 20.5734 5.02949 20.7094L5.44668 21.4453C5.69512 21.3 5.94355 21.1547 6.18262 21L5.73731 20.2875ZM2.39512 21.0516L1.81855 21.6703C2.07918 21.9187 2.40074 22.0828 2.75137 22.1578L2.93887 21.3375C2.73074 21.2953 2.53621 21.1922 2.39512 21.0516ZM4.31699 21.0656C4.08215 21.1734 3.8384 21.2578 3.58574 21.3094L3.77793 22.1344C4.07887 22.0734 4.36199 21.9609 4.64512 21.8438L4.31699 21.0656ZM17.4561 21.2906L16.8045 21.8203C17.0061 22.0688 17.2545 22.3078 17.4701 22.4766L17.9904 21.8109C17.7842 21.6516 17.6061 21.4594 17.4561 21.2906ZM18.5857 22.1109L18.3748 22.9313C18.7451 23.0063 19.0217 23.0297 19.3686 22.9922L19.2654 22.1531C19.0357 22.1906 18.8107 22.1672 18.5857 22.1109Z" fill="#1CA8CB"/>
</g>
<defs>
<clipPath id="clip0_423_18528">
<rect width="24" height="24" fill="white"/>
</clipPath>
</defs>
</svg>
