<svg width="18" height="19" viewBox="0 0 18 19" fill="none" xmlns="http://www.w3.org/2000/svg">
<path fill-rule="evenodd" clip-rule="evenodd" d="M9 18.418C10.1819 18.418 11.3522 18.1852 12.4442 17.7329C13.5361 17.2806 14.5282 16.6177 15.364 15.7819C16.1997 14.9462 16.8626 13.9541 17.3149 12.8621C17.7672 11.7702 18 10.5999 18 9.41797C18 8.23607 17.7672 7.06575 17.3149 5.97382C16.8626 4.88189 16.1997 3.88973 15.364 3.05401C14.5282 2.21828 13.5361 1.55535 12.4442 1.10305C11.3522 0.650761 10.1819 0.417969 9 0.417969C6.61305 0.417969 4.32387 1.36618 2.63604 3.05401C0.948212 4.74183 0 7.03102 0 9.41797C0 11.8049 0.948212 14.0941 2.63604 15.7819C4.32387 17.4698 6.61305 18.418 9 18.418ZM8.768 13.058L13.768 7.05797L12.232 5.77797L7.932 10.937L5.707 8.71097L4.293 10.125L7.293 13.125L8.067 13.899L8.768 13.058Z" fill="#0EA400"/>
</svg>
