<svg width="28" height="31" viewBox="0 0 28 31" fill="none" xmlns="http://www.w3.org/2000/svg">
<path d="M6.37744 10.1749C6.37744 8.14437 7.18408 6.19697 8.61991 4.76115C10.0557 3.32532 12.0031 2.51869 14.0337 2.51869C16.0643 2.51869 18.0117 3.32532 19.4475 4.76115C20.8833 6.19697 21.6899 8.14437 21.6899 10.1749C21.6899 10.465 21.8052 10.7432 22.0103 10.9483C22.2154 11.1535 22.4936 11.2687 22.7837 11.2687C23.0738 11.2687 23.352 11.1535 23.5571 10.9483C23.7622 10.7432 23.8774 10.465 23.8774 10.1749C23.8773 8.49617 23.4478 6.84534 22.6298 5.37934C21.8118 3.91335 20.6325 2.68091 19.204 1.79916C17.7754 0.91742 16.1451 0.415674 14.4679 0.341616C12.7908 0.267558 11.1226 0.623649 9.62189 1.37604C8.12117 2.12844 6.83781 3.25213 5.89379 4.64032C4.94976 6.02851 4.37645 7.63506 4.22833 9.30728C4.08021 10.9795 4.36222 12.6618 5.04755 14.1943C5.73287 15.7268 6.79874 17.0586 8.14385 18.0631C9.29729 18.9247 10.6257 19.5228 12.0354 19.8152C12.2312 20.2545 12.5663 20.617 12.9889 20.8466C13.4115 21.0762 13.8979 21.1602 14.373 21.0855C14.8481 21.0108 15.2853 20.7817 15.6171 20.4335C15.9488 20.0853 16.1566 19.6375 16.2082 19.1594C16.2598 18.6813 16.1525 18.1994 15.9027 17.7885C15.653 17.3775 15.2747 17.0603 14.8265 16.8859C14.3784 16.7115 13.8852 16.6897 13.4234 16.8238C12.9615 16.9579 12.5568 17.2404 12.2717 17.6277C10.5934 17.2309 9.09829 16.279 8.02852 14.9263C6.95875 13.5737 6.37697 11.8995 6.37744 10.1749ZM7.47119 10.1749C7.47162 8.96764 7.80508 7.78387 8.43488 6.75387C9.06468 5.72386 9.9664 4.88755 11.0408 4.33696C12.1153 3.78637 13.3208 3.54284 14.5247 3.63316C15.7286 3.72349 16.8842 4.14417 17.8645 4.84891C18.8447 5.55365 19.6116 6.51515 20.0806 7.62759C20.5497 8.74004 20.7028 9.96032 20.5231 11.1542C20.3434 12.348 19.8378 13.4691 19.062 14.3942C18.2862 15.3192 17.2703 16.0124 16.126 16.3973C15.5376 15.9102 14.7976 15.6437 14.0337 15.6437C13.2385 15.6437 12.5101 15.927 11.9413 16.3973C10.6384 15.959 9.50602 15.1226 8.70397 14.0062C7.90191 12.8897 7.4707 11.5496 7.47119 10.1749ZM14.0337 22.2062C14.5588 22.2065 15.0763 22.0807 15.5427 21.8395C16.0091 21.5983 16.4108 21.2487 16.714 20.8201C17.0173 20.3914 17.2133 19.8963 17.2855 19.3762C17.3577 18.8561 17.304 18.3262 17.129 17.8312H23.3306C24.3458 17.8312 25.3195 18.2345 26.0375 18.9524C26.7554 19.6703 27.1587 20.644 27.1587 21.6593V22.2062C27.1587 24.8235 25.4929 27.0373 23.1282 28.5423C20.7504 30.056 17.5315 30.9562 14.0337 30.9562C10.5359 30.9562 7.31807 30.056 4.93916 28.5423C2.57447 27.0373 0.908691 24.8235 0.908691 22.2062V21.6593C0.908691 20.644 1.31201 19.6703 2.02992 18.9524C2.74784 18.2345 3.72153 17.8312 4.73682 17.8312H6.22322C7.62207 19.2595 9.38565 20.2771 11.3223 20.7734C11.9129 21.6385 12.9082 22.2062 14.0337 22.2062Z" fill="#1CA8CB"/>
</svg>
