<svg width="47" height="32" viewBox="0 0 47 32" fill="none" xmlns="http://www.w3.org/2000/svg">
<g clip-path="url(#clip0_325_11642)">
<path d="M16.2407 24.4965C20.2094 24.4965 23.4267 21.2792 23.4267 17.3105C23.4267 13.3418 20.2094 10.1245 16.2407 10.1245C12.272 10.1245 9.05469 13.3418 9.05469 17.3105C9.05469 21.2792 12.272 24.4965 16.2407 24.4965Z" fill="#E0F9FF"/>
<path d="M13.9257 15.3364C15.0417 15.3364 15.0257 15.3364 15.0357 16.4734C15.0357 16.7734 14.9787 16.8884 14.6527 16.8734C14.1147 16.8434 13.5727 16.8564 13.0327 16.8734C12.8137 16.8794 12.7418 16.8264 12.7328 16.5894C12.6828 15.3364 12.6737 15.3364 13.9257 15.3364Z" fill="#113D48"/>
<path d="M32.9206 16.8625C31.8046 16.8625 31.8156 16.8625 31.8096 15.7255C31.8096 15.4255 31.8656 15.3105 32.1916 15.3255C32.7296 15.3555 33.2716 15.3425 33.8116 15.3255C34.0306 15.3195 34.1036 15.3715 34.1116 15.6095C34.1666 16.8625 34.1726 16.8625 32.9206 16.8625Z" fill="#113D48"/>
<path d="M13.8777 20.6773C12.7247 20.6773 12.7397 20.6773 12.7307 19.5263C12.7307 19.2013 12.8307 19.1263 13.1307 19.1453C13.6537 19.1683 14.1797 19.1683 14.7027 19.1453C14.9847 19.1323 15.0327 19.2353 15.0367 19.4933C15.0487 20.6773 15.0567 20.6773 13.8777 20.6773Z" fill="#113D48"/>
<path d="M32.9306 20.6452C31.8086 20.6782 31.8236 20.6782 31.8066 19.5502C31.8066 19.2042 31.9066 19.1252 32.2296 19.1442C32.7372 19.1733 33.246 19.1733 33.7536 19.1442C34.0636 19.1262 34.1386 19.2352 34.1086 19.5172C34.0686 19.8912 34.2696 20.4082 34.0296 20.6062C33.7896 20.8042 33.3086 20.6452 32.9306 20.6452Z" fill="#113D48"/>
<path d="M32.9176 13.0474C31.8046 13.0474 31.8176 13.0474 31.8086 11.9074C31.8086 11.6074 31.8746 11.4964 32.1946 11.5134C32.7336 11.5414 33.2746 11.5314 33.8146 11.5134C34.0376 11.5074 34.1036 11.5674 34.1146 11.8004C34.1616 13.0474 34.1696 13.0474 32.9176 13.0474Z" fill="#113D48"/>
<path d="M13.8577 24.4925C12.7327 24.4925 12.7476 24.4925 12.7316 23.3685C12.7266 23.0275 12.8216 22.9395 13.1506 22.9585C13.6736 22.9875 14.1997 22.9805 14.7227 22.9585C14.9807 22.9485 15.0306 23.0375 15.0356 23.2785C15.0606 24.4925 15.0687 24.4925 13.8577 24.4925Z" fill="#113D48"/>
<path d="M32.9386 24.4933C31.8096 24.4933 31.8236 24.4933 31.8086 23.3733C31.8086 23.0393 31.8856 22.9393 32.2236 22.9583C32.7616 22.9893 33.3036 22.9753 33.8436 22.9583C34.0516 22.9533 34.1436 23.0143 34.1076 23.2253C34.1061 23.2412 34.1061 23.2573 34.1076 23.2733C34.1476 24.4933 34.1476 24.4933 32.9386 24.4933Z" fill="#113D48"/>
<path d="M13.8447 13.0476C12.7287 13.0476 12.7396 13.0476 12.7336 11.9106C12.7336 11.6106 12.7897 11.4956 13.1157 11.5106C13.6537 11.5406 14.1957 11.5286 14.7357 11.5106C14.9547 11.5046 15.0276 11.5566 15.0356 11.7946C15.0906 13.0476 15.0967 13.0476 13.8447 13.0476Z" fill="#113D48"/>
<path d="M46.3066 24.4024C46.2938 23.7206 46.049 23.0636 45.6128 22.5395C45.1765 22.0155 44.5747 21.6557 43.9066 21.5194C43.1829 21.4142 42.4497 21.3901 41.7206 21.4474C40.9167 21.4466 40.1454 21.7648 39.5758 22.3321C39.0062 22.8994 38.685 23.6695 38.6826 24.4734C38.6746 24.9184 38.6826 25.3644 38.6826 25.8084C38.6826 25.9294 38.7156 26.0784 38.5286 26.1024C38.0476 26.215 37.5857 26.3976 37.1576 26.6444V24.1214C37.1576 22.9404 37.1577 22.9554 35.9747 22.9564C35.6537 22.9564 35.6227 23.0724 35.6257 23.3394C35.6397 24.3564 35.6206 25.3734 35.6376 26.3904C35.6376 26.6904 35.5846 26.7904 35.2576 26.7904C33.7316 26.7704 32.2056 26.7744 30.6796 26.7904C30.3796 26.7904 30.2796 26.7364 30.2796 26.4094C30.291 20.8148 30.291 15.2201 30.2796 9.6254C30.2796 9.2694 30.3976 9.22541 30.7086 9.22541C32.1866 9.24141 33.6646 9.24641 35.1426 9.22541C35.5236 9.21941 35.6426 9.29141 35.6426 9.70341C35.6236 13.2634 35.6316 16.8244 35.6316 20.3844C35.6316 21.4484 35.6316 21.4334 36.7206 21.4524C37.0596 21.4584 37.1706 21.3974 37.1696 21.0234C37.1536 16.9234 37.1597 12.8234 37.1597 8.72341C37.1597 7.95541 36.9096 7.71241 36.1246 7.71241C34.3436 7.71241 32.5637 7.69341 30.7847 7.72541C30.3417 7.73341 30.2737 7.59342 30.2847 7.20042C30.3127 6.16742 30.2956 5.13441 30.2926 4.10041C30.2926 3.39241 30.0286 3.13642 29.3086 3.13342C28.7366 3.13342 28.1636 3.11241 27.5936 3.14141C27.2826 3.15741 27.2186 3.04841 27.2366 2.76641C27.2606 2.40341 27.2506 2.03541 27.2366 1.66641C27.2474 1.55862 27.2346 1.44978 27.1992 1.3474C27.1638 1.24503 27.1066 1.15154 27.0316 1.0734C26.9566 0.995282 26.8656 0.934364 26.7648 0.894829C26.6639 0.855295 26.5557 0.838096 26.4476 0.844414C24.4289 0.834414 22.4103 0.834414 20.3916 0.844414C20.2876 0.838465 20.1834 0.854638 20.086 0.891869C19.9886 0.9291 19.9002 0.986531 19.8266 1.0604C19.7531 1.1343 19.6959 1.22295 19.659 1.3205C19.6222 1.41806 19.6064 1.52231 19.6127 1.62641C19.5987 2.02641 19.5937 2.42641 19.6127 2.81841C19.6257 3.07041 19.5466 3.14141 19.2956 3.13441C18.6956 3.11641 18.0876 3.12541 17.4836 3.13441C16.8296 3.13441 16.5596 3.4074 16.5556 4.0604C16.5556 5.1414 16.5406 6.22241 16.5626 7.30241C16.5696 7.63241 16.4917 7.72441 16.1517 7.72041C14.3077 7.70141 12.4647 7.70941 10.6207 7.71241C9.96465 7.71241 9.69064 7.98442 9.68864 8.63342C9.68864 9.73342 9.68864 10.8264 9.68864 11.9234C9.68864 13.0594 9.68862 13.0454 10.8016 13.0604C11.1256 13.0604 11.2316 12.9984 11.2236 12.6524C11.1976 11.6364 11.2236 10.6184 11.2076 9.6014C11.2026 9.3174 11.2606 9.22542 11.5666 9.22842C13.1086 9.24642 14.6503 9.24642 16.1916 9.22842C16.4756 9.22842 16.5636 9.28241 16.5626 9.58741C16.5519 15.1981 16.5519 20.8087 16.5626 26.4194C16.5626 26.7624 16.4356 26.7924 16.1546 26.7904C14.6606 26.7794 13.1667 26.7734 11.6727 26.7904C11.3147 26.7904 11.2006 26.7214 11.2026 26.3344C11.2196 22.8044 11.2126 19.2774 11.2126 15.7494C11.2126 14.5354 11.2126 14.5424 10.0036 14.5674C9.76765 14.5674 9.66965 14.6144 9.68065 14.8774C9.70165 15.4174 9.68761 15.9584 9.68761 16.4984V26.6894C9.31904 26.419 8.8975 26.2296 8.45061 26.1334C8.19461 26.0884 8.15064 25.9774 8.15764 25.7554C8.16964 25.2934 8.17164 24.8314 8.15764 24.3724C8.1277 23.6024 7.80711 22.8724 7.26048 22.3293C6.71386 21.7862 5.98181 21.4704 5.21165 21.4454C4.71965 21.4314 4.22663 21.4394 3.73363 21.4454C3.30775 21.4241 2.88215 21.4922 2.48424 21.6455C2.08632 21.7987 1.72496 22.0337 1.42345 22.3352C1.12193 22.6367 0.886946 22.9981 0.733688 23.396C0.580429 23.7939 0.512255 24.2195 0.533614 24.6454C0.533614 26.5054 0.533614 28.3644 0.533614 30.2244C0.533614 31.1594 0.733616 31.3594 1.68462 31.3594H45.1666C45.2666 31.3594 45.3576 31.3594 45.4526 31.3594C45.5682 31.3729 45.6853 31.3601 45.7953 31.322C45.9052 31.2839 46.0052 31.2215 46.0876 31.1394C46.1701 31.0573 46.233 30.9577 46.2717 30.8479C46.3103 30.7381 46.3236 30.6211 46.3107 30.5054C46.3177 28.4714 46.3296 26.4364 46.3066 24.4024ZM3.59862 29.4764C3.58062 29.7624 3.52262 29.8414 3.22862 29.8414C2.05862 29.8414 2.05864 29.8524 2.05864 28.6694V26.9524C2.05864 26.1604 2.05364 25.3664 2.05864 24.5724C2.0477 24.3578 2.08199 24.1432 2.15935 23.9427C2.2367 23.7421 2.35536 23.5601 2.50761 23.4084C2.65978 23.2567 2.84213 23.1388 3.04283 23.0621C3.24353 22.9854 3.45813 22.9518 3.67265 22.9634C4.14865 22.9634 4.62463 22.9544 5.10063 22.9634C5.30321 22.9627 5.5039 23.0024 5.69102 23.0799C5.87815 23.1575 6.04801 23.2716 6.19066 23.4154C6.33348 23.5592 6.44628 23.73 6.52251 23.9178C6.59873 24.1056 6.63683 24.3067 6.63463 24.5094C6.62983 24.5887 6.62983 24.6682 6.63463 24.7474C6.69275 24.922 6.71285 25.107 6.69359 25.29C6.67433 25.4729 6.61613 25.6497 6.52293 25.8083C6.42973 25.967 6.3037 26.1039 6.15324 26.2098C6.00279 26.3157 5.8314 26.3882 5.65062 26.4224C5.03709 26.6602 4.51136 27.0806 4.14439 27.6267C3.77743 28.1729 3.5869 28.8185 3.59862 29.4764ZM9.25066 29.8444C8.63566 29.7994 8.01461 29.8334 7.39561 29.8334C6.76161 29.8334 6.12565 29.8084 5.49565 29.8434C5.12365 29.8634 5.05766 29.7114 5.12566 29.4094C5.16024 29.2231 5.20968 29.0398 5.2736 28.8614C5.47921 28.3828 5.84488 27.9906 6.30791 27.7519C6.77094 27.5133 7.30253 27.4431 7.81163 27.5534C8.27187 27.6066 8.7023 27.808 9.03801 28.1273C9.37372 28.4466 9.59651 28.8664 9.67265 29.3234C9.73165 29.6654 9.71565 29.8804 9.25365 29.8464L9.25066 29.8444ZM15.4097 29.8334H13.8837C13.1047 29.8334 12.3267 29.8214 11.5477 29.8404C11.2757 29.8464 11.2106 29.7644 11.2066 29.4984C11.1936 28.3074 11.1846 28.3074 12.3616 28.3074C13.6326 28.3074 14.9046 28.3184 16.1756 28.2994C16.4896 28.2994 16.5666 28.3824 16.5646 28.6904C16.5566 29.8344 16.5647 29.8334 15.4097 29.8334ZM21.4227 2.35841C22.756 2.36841 24.0893 2.36841 25.4227 2.35841C25.6537 2.35841 25.7176 2.42241 25.7136 2.65041C25.7003 3.47641 25.7003 4.30274 25.7136 5.1294C25.7136 5.3604 25.6476 5.4294 25.4206 5.4204C24.7536 5.4064 24.0856 5.4204 23.4206 5.4204C22.7556 5.4204 22.0856 5.41041 21.4206 5.42541C21.1896 5.42541 21.1256 5.36141 21.1296 5.13241C21.1423 4.30641 21.1423 3.48007 21.1296 2.6534C21.1296 2.4244 21.1936 2.3624 21.4216 2.3644L21.4227 2.35841ZM24.9556 25.6254C24.9376 26.2764 24.9496 26.9254 24.9496 27.5794C24.9496 28.2154 24.9386 28.8514 24.9546 29.4864C24.9616 29.7394 24.9146 29.8474 24.6246 29.8394C23.8306 29.8184 23.0356 29.8144 22.2416 29.8394C21.9226 29.8504 21.8876 29.7304 21.8896 29.4594C21.903 28.1721 21.903 26.8847 21.8896 25.5974C21.8896 25.3444 21.9296 25.2364 22.2197 25.2444C23.0137 25.2654 23.8086 25.2694 24.6026 25.2444C24.9216 25.2354 24.9626 25.3544 24.9546 25.6264L24.9556 25.6254ZM28.2646 29.8424C27.7889 29.8079 27.3113 29.8079 26.8356 29.8424C26.5426 29.8584 26.4646 29.7764 26.4676 29.4794C26.4836 27.9064 26.4767 26.3334 26.4747 24.7624C26.4747 23.9794 26.2316 23.7344 25.4566 23.7334C24.106 23.7334 22.7553 23.7334 21.4046 23.7334C20.6046 23.7334 20.3706 23.9704 20.3696 24.7924C20.3696 26.3334 20.3546 27.8744 20.3796 29.4154C20.3856 29.7874 20.2746 29.8674 19.9316 29.8444C19.4559 29.8099 18.9783 29.8099 18.5026 29.8444C18.1276 29.8754 18.0706 29.7384 18.0716 29.3974C18.0836 25.3304 18.0796 21.2624 18.0796 17.1974C18.0796 13.1614 18.0796 9.12642 18.0716 5.09042C18.0716 4.74342 18.1376 4.63741 18.5056 4.64541C19.6056 4.66841 19.6056 4.64542 19.6056 5.74542C19.6056 6.75642 19.7897 6.94541 20.7897 6.94541H26.0806C27.0456 6.94541 27.2356 6.75041 27.2356 5.76641C27.2356 5.51241 27.2506 5.2574 27.2356 5.0044C27.2206 4.7514 27.2687 4.65141 27.5607 4.64741C28.7667 4.63141 28.7666 4.61941 28.7666 5.83541C28.7666 13.6687 28.77 21.5021 28.7767 29.3354C28.7767 29.7494 28.6926 29.8874 28.2676 29.8484L28.2646 29.8424ZM34.5516 29.8324H32.9296C32.1666 29.8324 31.4036 29.8234 30.6416 29.8324C30.3956 29.8324 30.2856 29.8054 30.2816 29.5094C30.2656 28.3004 30.2527 28.3014 31.4667 28.3014C32.7217 28.3014 33.9776 28.3154 35.2327 28.2924C35.5787 28.2854 35.6436 28.3924 35.6396 28.7144C35.6256 29.8294 35.6396 29.8294 34.5516 29.8294V29.8324ZM41.3356 29.8434C40.7036 29.8014 40.0677 29.8324 39.4357 29.8324C38.7697 29.8324 38.1027 29.8204 37.4357 29.8384C37.1917 29.8454 37.1226 29.7594 37.1616 29.5384C37.1856 29.366 37.219 29.1951 37.2616 29.0264C37.4344 28.5093 37.7904 28.0733 38.2626 27.8008C38.7348 27.5283 39.2905 27.4382 39.8246 27.5474C40.3019 27.5937 40.7497 27.7994 41.0957 28.1314C41.4417 28.4635 41.6657 28.9024 41.7316 29.3774C41.7736 29.6894 41.7517 29.8704 41.3417 29.8434H41.3356ZM44.4466 29.8434C44.0836 29.8104 43.6527 29.9524 43.3707 29.7984C43.0886 29.6444 43.2626 29.1674 43.1706 28.8384C43.0264 28.1924 42.7056 27.5991 42.2438 27.1248C41.7821 26.6505 41.1976 26.3139 40.5556 26.1524C40.2477 26.0664 40.1906 25.9524 40.2026 25.6784C40.2206 25.2664 40.1957 24.8534 40.2117 24.4414C40.2243 24.0571 40.3824 23.6918 40.654 23.4195C40.9255 23.1472 41.2903 22.9881 41.6746 22.9744C42.2136 22.9554 42.7536 22.9574 43.2906 22.9744C43.6841 22.9801 44.0597 23.1393 44.3375 23.418C44.6153 23.6967 44.7732 24.0729 44.7776 24.4664C44.7966 25.3074 44.7776 26.1484 44.7776 26.9894C44.7776 27.8144 44.7696 28.6384 44.7836 29.4634C44.7906 29.7294 44.7636 29.8764 44.4386 29.8464L44.4466 29.8434Z" fill="#113D48"/>
<path d="M21.1346 9.19926C21.1346 9.99426 21.1347 9.99426 20.3557 9.99426C19.6087 9.99426 19.6086 9.99426 19.6086 9.26326C19.6086 8.46826 19.6086 8.46826 20.3876 8.46826C21.1346 8.46826 21.1346 8.46826 21.1346 9.19926Z" fill="#113D48"/>
<path d="M23.4606 8.46826C24.1826 8.46826 24.1826 8.46825 24.1826 9.17625C24.1826 9.99425 24.1826 9.99426 23.3826 9.99426C22.6606 9.99426 22.6606 9.99425 22.6606 9.28625C22.6606 8.46825 22.6606 8.46826 23.4606 8.46826Z" fill="#113D48"/>
<path d="M27.2386 15.2952C27.2386 16.0952 27.2387 16.0952 26.4207 16.0952C25.7127 16.0952 25.7126 16.0952 25.7126 15.3732C25.7126 14.5732 25.7126 14.5732 26.5306 14.5732C27.2386 14.5732 27.2386 14.5732 27.2386 15.2952Z" fill="#113D48"/>
<path d="M21.1347 18.3955C21.1347 19.1515 21.1347 19.1515 20.3647 19.1515C19.5947 19.1515 19.6087 19.1515 19.6087 18.3815C19.6087 17.6115 19.6086 17.6255 20.3786 17.6255C21.1486 17.6255 21.1347 17.6255 21.1347 18.3955Z" fill="#113D48"/>
<path d="M24.1866 18.4205C24.1866 19.1515 24.1866 19.1515 23.4396 19.1515C22.6606 19.1515 22.6606 19.1515 22.6606 18.3575C22.6606 17.6255 22.6607 17.6255 23.4077 17.6255C24.1867 17.6255 24.1866 17.6255 24.1866 18.4205Z" fill="#113D48"/>
<path d="M27.2386 18.4175C27.2386 19.1525 27.2387 19.1525 26.4947 19.1525C25.7127 19.1525 25.7126 19.1525 25.7126 18.3605C25.7126 17.6255 25.7126 17.6255 26.4566 17.6255C27.2386 17.6255 27.2386 17.6255 27.2386 18.4175Z" fill="#113D48"/>
<path d="M21.1337 21.3962C21.1337 22.2032 21.1337 22.2032 20.3187 22.2032C19.6077 22.2032 19.6077 22.2032 19.6077 21.4842C19.6077 20.6772 19.6077 20.6772 20.4227 20.6772C21.1337 20.6772 21.1337 20.6772 21.1337 21.3962Z" fill="#113D48"/>
<path d="M24.1857 21.4842C24.1857 22.2032 24.1857 22.2032 23.4737 22.2032C22.6587 22.2032 22.6587 22.2032 22.6587 21.3962C22.6587 20.6772 22.6587 20.6772 23.3707 20.6772C24.1857 20.6772 24.1857 20.6772 24.1857 21.4842Z" fill="#113D48"/>
<path d="M25.7126 12.2825C25.7126 11.5215 25.7127 11.5215 26.4777 11.5215C27.2427 11.5215 27.2386 11.5215 27.2386 12.2865C27.2386 13.0515 27.2386 13.0475 26.4736 13.0475C25.7086 13.0475 25.7126 13.0475 25.7126 12.2825Z" fill="#113D48"/>
<path d="M24.1866 12.3195C24.1866 13.0455 24.1867 13.0455 23.4337 13.0455C22.6607 13.0455 22.6606 13.0455 22.6606 12.2925C22.6606 11.5195 22.6606 11.5195 23.4136 11.5195C24.1866 11.5195 24.1866 11.5195 24.1866 12.3195Z" fill="#113D48"/>
<path d="M20.3347 16.0992C19.6087 16.0992 19.6086 16.0992 19.6086 15.3462C19.6086 14.5732 19.6086 14.5732 20.3616 14.5732C21.1346 14.5732 21.1346 14.5732 21.1346 15.3262C21.1346 16.0992 21.1347 16.0992 20.3347 16.0992Z" fill="#113D48"/>
<path d="M20.3466 13.0475C19.6086 13.0475 19.6086 13.0475 19.6086 12.3065C19.6086 11.5215 19.6086 11.5215 20.3966 11.5215C21.1346 11.5215 21.1346 11.5215 21.1346 12.2625C21.1346 13.0475 21.1346 13.0475 20.3466 13.0475Z" fill="#113D48"/>
<path d="M27.2387 9.24426C27.2387 9.99426 27.2387 9.99426 26.5097 9.99426C25.7097 9.99426 25.7097 9.99426 25.7097 9.21826C25.7097 8.46826 25.7097 8.46826 26.4387 8.46826C27.2387 8.46826 27.2387 8.46826 27.2387 9.24426Z" fill="#113D48"/>
<path d="M23.4216 16.0992C22.6606 16.0992 22.6606 16.0992 22.6606 15.3342C22.6606 14.5692 22.6607 14.5732 23.4257 14.5732C24.1907 14.5732 24.1866 14.5732 24.1866 15.3382C24.1866 16.1032 24.1866 16.0992 23.4216 16.0992Z" fill="#113D48"/>
<path d="M26.4957 20.6772C27.2397 20.6772 27.2397 20.6772 27.2397 21.4122C27.2397 22.2042 27.2397 22.2042 26.4567 22.2042C25.7137 22.2042 25.7137 22.2042 25.7137 21.4692C25.7127 20.6772 25.7127 20.6772 26.4957 20.6772Z" fill="#113D48"/>
</g>
<defs>
<clipPath id="clip0_325_11642">
<rect width="45.786" height="30.527" fill="white" transform="translate(0.533691 0.837402)"/>
</clipPath>
</defs>
</svg>
