<svg width="22" height="22" viewBox="0 0 22 22" fill="none" xmlns="http://www.w3.org/2000/svg">
<path d="M13.5938 14.1627C13.2638 13.6585 12.998 13.191 12.7505 12.7602C11.678 10.9177 10.8072 9.671 8.24967 9.286V5.04183C8.24967 3.27266 6.81051 1.8335 5.04134 1.8335C3.27217 1.8335 1.83301 3.27266 1.83301 5.04183V20.1668H3.66634V18.3335H6.41634V20.1668H8.24967V11.1468C9.86301 11.4585 10.3488 12.2743 11.1555 13.6768C11.4213 14.1443 11.7147 14.6393 12.0722 15.1802C14.1255 18.2602 16.1972 20.1668 20.1663 20.1668V18.3335C16.9855 18.3335 15.3997 16.8668 13.5938 14.1627ZM5.04134 3.66683C5.80217 3.66683 6.41634 4.281 6.41634 5.04183V9.16683H3.66634V5.04183C3.66634 4.281 4.28051 3.66683 5.04134 3.66683ZM3.66634 16.5002V14.6668H6.41634V16.5002H3.66634ZM6.41634 12.8335H3.66634V11.0002H6.41634V12.8335Z" fill="#1CA8CB"/>
</svg>
