<svg width="14" height="21" viewBox="0 0 14 21" fill="none" xmlns="http://www.w3.org/2000/svg">
<path d="M6 4.91846H8V2.91846H6V4.91846ZM7 10.9185C5.73333 10.9185 4.525 10.6558 3.375 10.1305C2.225 9.60512 1.1 9.01779 0 8.36846V6.91846C0 6.36846 0.196 5.89779 0.588 5.50646C0.98 5.11512 1.45067 4.91912 2 4.91846H4V1.91846C4 1.63512 4.096 1.39779 4.288 1.20646C4.48 1.01512 4.71733 0.919124 5 0.918457H9C9.28333 0.918457 9.521 1.01446 9.713 1.20646C9.905 1.39846 10.0007 1.63579 10 1.91846V4.91846H12C12.55 4.91846 13.021 5.11446 13.413 5.50646C13.805 5.89846 14.0007 6.36912 14 6.91846V8.36846C12.9 9.01846 11.775 9.60612 10.625 10.1315C9.475 10.6568 8.26667 10.9191 7 10.9185ZM2 19.9185C1.45 19.9185 0.979333 19.7228 0.588 19.3315C0.196666 18.9401 0.000666667 18.4691 0 17.9185V10.6185C0.933333 11.1851 1.896 11.6685 2.888 12.0685C3.88 12.4685 4.91733 12.7351 6 12.8685V12.9185C6 13.2018 6.096 13.4395 6.288 13.6315C6.48 13.8235 6.71733 13.9191 7 13.9185C7.28267 13.9178 7.52033 13.8218 7.713 13.6305C7.90567 13.4391 8.00133 13.2018 8 12.9185V12.8685C9.08333 12.7351 10.121 12.4685 11.113 12.0685C12.105 11.6685 13.0673 11.1851 14 10.6185V17.9185C14 18.4685 13.8043 18.9395 13.413 19.3315C13.0217 19.7235 12.5507 19.9191 12 19.9185C12 20.2018 11.904 20.4395 11.712 20.6315C11.52 20.8235 11.2827 20.9191 11 20.9185C10.7333 20.9185 10.546 20.7975 10.438 20.5555C10.33 20.3135 10.184 20.1011 10 19.9185H4C4 20.2018 3.904 20.4395 3.712 20.6315C3.52 20.8235 3.28267 20.9191 3 20.9185C2.73333 20.9185 2.546 20.7975 2.438 20.5555C2.33 20.3135 2.184 20.1011 2 19.9185Z" fill="#1CA8CB"/>
</svg>
