<svg width="23" height="22" viewBox="0 0 23 22" fill="none" xmlns="http://www.w3.org/2000/svg">
<path d="M11.5094 12.8333C13.5316 12.8333 15.1761 11.1888 15.1761 9.16667C15.1761 7.1445 13.5316 5.5 11.5094 5.5C9.48727 5.5 7.84277 7.1445 7.84277 9.16667C7.84277 11.1888 9.48727 12.8333 11.5094 12.8333ZM11.5094 7.33333C12.5205 7.33333 13.3428 8.15558 13.3428 9.16667C13.3428 10.1777 12.5205 11 11.5094 11C10.4984 11 9.67611 10.1777 9.67611 9.16667C9.67611 8.15558 10.4984 7.33333 11.5094 7.33333Z" fill="#1CA8CB"/>
<path d="M10.9785 19.9963C11.1338 20.1069 11.3196 20.1663 11.5102 20.1663C11.7007 20.1663 11.8866 20.1069 12.0418 19.9963C12.3205 19.7992 18.8701 15.0702 18.8435 9.16683C18.8435 5.12341 15.5536 1.8335 11.5102 1.8335C7.46676 1.8335 4.17684 5.12341 4.17684 9.16225C4.15026 15.0702 10.6998 19.7992 10.9785 19.9963ZM11.5102 3.66683C14.5434 3.66683 17.0102 6.13358 17.0102 9.17141C17.0294 13.2396 12.9878 16.8925 11.5102 18.0906C10.0334 16.8916 5.99092 13.2377 6.01017 9.16683C6.01017 6.13358 8.47692 3.66683 11.5102 3.66683Z" fill="#1CA8CB"/>
</svg>
