<svg width="22" height="22" viewBox="0 0 22 22" fill="none" xmlns="http://www.w3.org/2000/svg">
<path d="M10.9997 18.3332H1.83301V16.4998H7.10384C6.41634 13.924 4.40884 11.9165 1.83301 11.2382C2.41967 11.0915 3.03384 10.9998 3.66634 10.9998C7.71801 10.9998 10.9997 14.2815 10.9997 18.3332ZM20.1663 11.2382C19.5797 11.0915 18.9655 10.9998 18.333 10.9998C15.6472 10.9998 13.2913 12.4482 12.0263 14.6023C12.2922 15.2073 12.5122 15.8398 12.6405 16.4998C12.7597 17.0957 12.833 17.7098 12.833 18.3332H20.1663V16.4998H14.8863C15.583 13.924 17.5905 11.9165 20.1663 11.2382ZM14.3363 10.0832C15.0513 8.18567 16.3805 6.5815 18.0855 5.49984C14.153 5.6465 10.9997 8.864 10.9997 12.8332C11.8705 11.6873 13.0163 10.7432 14.3363 10.0832ZM10.468 8.11234C10.0883 7.11532 9.50853 6.20655 8.76445 5.44197C8.02036 4.67739 7.12768 4.07317 6.14134 3.6665C7.46134 5.3715 8.24967 7.49817 8.24967 9.81734C8.24967 10.0098 8.22217 10.1932 8.21301 10.3765C8.60717 10.5965 8.97384 10.8532 9.33134 11.1282C9.52726 10.0631 9.91222 9.04174 10.468 8.11234Z" fill="#1CA8CB"/>
</svg>
