<svg width="40" height="33" viewBox="0 0 40 33" fill="none" xmlns="http://www.w3.org/2000/svg">
<g clip-path="url(#clip0_325_11591)">
<path d="M8.09909 24.4535C12.0678 24.4535 15.2851 21.2363 15.2851 17.2675C15.2851 13.2988 12.0678 10.0815 8.09909 10.0815C4.13037 10.0815 0.913086 13.2988 0.913086 17.2675C0.913086 21.2363 4.13037 24.4535 8.09909 24.4535Z" fill="#E0F9FF"/>
<path d="M10.9602 26.3482C11.2242 26.1142 11.4553 25.7572 11.7603 25.6782C12.0953 25.5912 12.2512 26.0542 12.4822 26.2722C13.7965 27.5787 15.3699 28.5956 17.101 29.2573C18.832 29.919 20.6825 30.2109 22.5332 30.1142C24.2684 30.0569 25.9749 29.6547 27.5531 28.931C29.1313 28.2074 30.5495 27.1767 31.7252 25.8992C31.9892 25.6242 32.1252 25.6132 32.3922 25.8712C32.9172 26.3712 32.9392 26.3602 32.4132 26.8902C30.1013 29.2518 27.0618 30.7665 23.7842 31.1902C21.4143 31.4829 19.0088 31.1951 16.7748 30.3516C14.5408 29.5081 12.5453 28.1342 10.9602 26.3482Z" fill="#113D48"/>
<path d="M22.478 2.01639C25.7966 2.11404 28.978 3.36188 31.478 5.54639C31.65 5.69139 31.7141 5.78539 31.5181 5.96239C31.3021 6.16239 31.138 6.51339 30.907 6.55439C30.727 6.58739 30.4831 6.24239 30.2631 6.06939C27.8178 4.14645 24.7818 3.13007 21.6716 3.19315C18.5615 3.25623 15.5693 4.39489 13.204 6.41539C12.996 6.59439 12.9041 6.58839 12.7311 6.38239C12.1591 5.71539 12.149 5.72239 12.843 5.18239C15.5917 3.04412 18.9968 1.92522 22.478 2.01639Z" fill="#113D48"/>
<path d="M32.9822 15.2336C32.9462 14.9096 32.8741 14.7796 32.4961 14.8706C31.7651 15.0476 31.7702 15.0176 31.8472 15.7766C31.9756 17.0685 31.8394 18.373 31.4472 19.6106C30.4794 18.8536 29.3501 18.3297 28.1471 18.0796C28.2635 17.9986 28.3748 17.9104 28.4801 17.8156C29.4701 16.8175 30.0563 15.4887 30.1261 14.0846C30.1875 13.0791 29.9883 12.0748 29.5476 11.1689C29.107 10.263 28.44 9.48616 27.6111 8.91359C26.7823 8.34114 25.8198 7.99231 24.8167 7.90086C23.8136 7.80942 22.8038 7.97844 21.8852 8.39159C21.8042 8.43714 21.7113 8.45677 21.6188 8.44783C21.5264 8.43889 21.4389 8.4018 21.3682 8.34158C21.0602 8.12646 20.7092 7.98065 20.3394 7.91419C19.9696 7.84772 19.5899 7.86219 19.2262 7.95659C18.8623 8.05074 18.523 8.22269 18.232 8.46059C17.9409 8.69848 17.7049 8.99668 17.5402 9.3346C17.5051 9.43851 17.434 9.52644 17.3398 9.58255C17.2455 9.63866 17.1343 9.65925 17.0262 9.6406C16.6196 9.62741 16.2156 9.70921 15.8462 9.8795C15.4768 10.0498 15.1522 10.3039 14.8982 10.6216C14.6441 10.9393 14.4675 11.3119 14.3826 11.7098C14.2977 12.1076 14.3069 12.5198 14.4092 12.9136C14.4812 13.1956 14.4752 13.3316 14.1872 13.4656C13.8948 13.5945 13.6413 13.7978 13.4519 14.0552C13.2626 14.3126 13.1441 14.6151 13.1082 14.9326C13.0351 15.4266 12.8789 15.9047 12.6462 16.3466C12.4896 16.6386 12.4111 16.9662 12.4183 17.2975C12.4254 17.6288 12.5181 17.9526 12.6872 18.2376C12.8945 18.6244 13.0301 19.0455 13.0872 19.4806C13.1231 19.8224 13.2481 20.1488 13.4495 20.4272C13.6509 20.7057 13.9218 20.9265 14.2351 21.0676C14.5842 21.2161 14.8993 21.4342 15.1612 21.7086C15.4324 22.0345 15.7924 22.2748 16.1974 22.4003C16.6025 22.5258 17.0352 22.5311 17.4432 22.4156C17.7571 22.3414 18.0858 22.3588 18.3902 22.4656C18.3572 22.5386 18.3241 22.6026 18.2981 22.6656C18.1905 22.8864 18.136 23.1294 18.139 23.3751C18.1419 23.6208 18.2023 23.8624 18.3152 24.0806C18.4281 24.2987 18.5904 24.4875 18.7892 24.6318C18.988 24.7761 19.2177 24.8719 19.4601 24.9116C20.0158 25.0136 20.5897 24.9244 21.0882 24.6586C22.1231 24.1615 23.2595 23.9118 24.4075 23.9291C25.5555 23.9465 26.6837 24.2304 27.7032 24.7586C27.5832 24.8486 27.5092 24.9096 27.4302 24.9586C25.4182 26.3214 22.9677 26.8789 20.5641 26.5206C19.2317 26.3361 17.9504 25.8835 16.7976 25.1902C15.6449 24.4969 14.6447 23.5772 13.8572 22.4866C13.0697 21.3961 12.5112 20.1574 12.2156 18.8452C11.92 17.5329 11.8932 16.1744 12.1371 14.8516C12.539 12.6817 13.6495 10.7064 15.2945 9.23529C16.9395 7.76421 19.026 6.88049 21.2272 6.7226C23.3606 6.56884 25.4867 7.10671 27.2903 8.25647C29.094 9.40623 30.479 11.1067 31.2402 13.1056C31.3402 13.3606 31.3402 13.7536 31.5622 13.8336C31.7842 13.9136 32.0872 13.7106 32.3622 13.6526C32.5932 13.6036 32.6222 13.5066 32.5542 13.2836C31.7084 10.6502 29.9156 8.42421 27.523 7.03652C25.1304 5.64883 22.308 5.19811 19.6022 5.77159C16.8235 6.37021 14.3788 8.00853 12.7688 10.351C11.1588 12.6935 10.5053 15.5629 10.9422 18.3716C11.3389 20.905 12.5978 23.2238 14.5063 24.9364C16.4147 26.649 18.8558 27.6505 21.4172 27.7716C23.1599 27.8761 24.902 27.5573 26.4948 26.8425C28.0876 26.1276 29.4838 25.038 30.5641 23.6666C31.5286 22.5047 32.2415 21.1553 32.6578 19.7037C33.074 18.2522 33.1845 16.73 32.9822 15.2336ZM22.3971 9.76459C22.3211 9.51459 22.3822 9.43459 22.5972 9.34859C23.6924 8.93709 24.9014 8.94771 25.9892 9.37837C27.0769 9.80904 27.9656 10.6289 28.4822 11.6786C28.9921 12.7241 29.0952 13.9217 28.7716 15.039C28.4481 16.1562 27.7208 17.1134 26.7311 17.7246C26.6251 17.8072 26.4954 17.8534 26.3611 17.8566C25.2885 17.7977 24.213 17.8924 23.1672 18.1376C23.1162 18.1417 23.0651 18.1417 23.0142 18.1376C23.5622 17.1626 23.0042 16.3486 22.6072 15.4476C23.9482 16.2756 24.9801 16.2586 25.8611 15.4476C26.2301 15.1052 26.4791 14.6531 26.5713 14.1582C26.6635 13.6633 26.5941 13.1519 26.3732 12.6996C26.1499 12.2485 25.7879 11.8809 25.3403 11.6507C24.8926 11.4206 24.383 11.3399 23.8861 11.4206C23.3411 11.5142 22.8459 11.7953 22.486 12.2152C22.1261 12.6352 21.9242 13.1676 21.9152 13.7206L20.7621 13.0556C20.8251 12.9236 20.9502 12.9196 21.0442 12.8726C21.6028 12.6005 22.0457 12.1378 22.2933 11.568C22.5408 10.9981 22.5766 10.3585 22.3942 9.76459H22.3971ZM23.1051 13.7386C23.1051 13.4302 23.2265 13.1343 23.443 12.9148C23.6596 12.6952 23.9538 12.5698 24.2621 12.5656C24.418 12.5643 24.5725 12.5941 24.7167 12.6531C24.8609 12.7122 24.992 12.7994 25.1022 12.9096C25.2124 13.0198 25.2995 13.1508 25.3586 13.295C25.4176 13.4392 25.4474 13.5938 25.4462 13.7496C25.441 14.0578 25.3149 14.3517 25.0951 14.5679C24.8754 14.7841 24.5794 14.9054 24.2712 14.9056C23.9635 14.9012 23.6698 14.7766 23.4527 14.5586C23.2356 14.3406 23.1123 14.0463 23.1092 13.7386H23.1051ZM19.9002 9.04858C20.2879 9.05517 20.6573 9.21476 20.9278 9.49257C21.1983 9.77038 21.3479 10.1439 21.3442 10.5316C21.3378 10.9193 21.1783 11.2887 20.9004 11.5591C20.6225 11.8295 20.2488 11.9789 19.8611 11.9746C19.4734 11.9683 19.1038 11.8088 18.8333 11.5309C18.5627 11.253 18.4131 10.8794 18.4172 10.4916C18.4227 10.1035 18.5821 9.73344 18.8604 9.46285C19.1387 9.19225 19.5121 9.04324 19.9002 9.04858ZM16.9642 10.8036C17.1582 10.8036 17.2772 10.8396 17.3172 11.0656C17.4166 11.6365 17.7237 12.1504 18.1792 12.5086C18.216 12.5294 18.2477 12.5581 18.2719 12.5927C18.2961 12.6273 18.3122 12.6669 18.3191 12.7086C18.3267 12.7495 18.3252 12.7916 18.3146 12.8319C18.3041 12.8721 18.2848 12.9096 18.2582 12.9416C18.1472 13.1653 17.9801 13.3566 17.7734 13.4968C17.5666 13.6369 17.3271 13.7213 17.0782 13.7416C16.876 13.7531 16.6737 13.7237 16.4833 13.6549C16.2929 13.5862 16.1183 13.4796 15.9701 13.3416C15.8219 13.2041 15.703 13.0382 15.6205 12.8536C15.538 12.669 15.4937 12.4697 15.4902 12.2676C15.4944 11.8788 15.6519 11.5074 15.9285 11.2342C16.2051 10.961 16.5784 10.808 16.9672 10.8086L16.9642 10.8036ZM16.7771 21.3036C16.6672 21.3154 16.5561 21.2996 16.4538 21.2577C16.3515 21.2158 16.2613 21.1491 16.1912 21.0636C15.7722 20.6191 15.274 20.2566 14.7222 19.9946C14.593 19.9378 14.4813 19.8475 14.3988 19.7331C14.3164 19.6186 14.2661 19.4841 14.2532 19.3436C14.1833 18.7619 14.0016 18.1993 13.7182 17.6866C13.6367 17.5503 13.5945 17.3941 13.5961 17.2353C13.5977 17.0765 13.6431 16.9213 13.7272 16.7866C13.9996 16.2824 14.1779 15.7327 14.2532 15.1646C14.3133 14.9489 14.4284 14.7526 14.5872 14.5948C14.746 14.437 14.9432 14.3233 15.1592 14.2646C15.2592 14.2526 15.3091 14.3306 15.3761 14.3786C15.6732 14.6045 16.0153 14.7641 16.3793 14.8464C16.7433 14.9287 17.1208 14.9318 17.4861 14.8556C17.8515 14.7794 18.1961 14.6256 18.4969 14.4046C18.7976 14.1835 19.0474 13.9005 19.2292 13.5746C19.3572 13.3606 19.4291 13.3576 19.5841 13.5306C19.9585 13.9335 20.4097 14.2575 20.9112 14.4836C21.047 14.5406 21.1651 14.633 21.2531 14.7512C21.341 14.8694 21.3956 15.0091 21.4112 15.1556C21.4821 15.737 21.6637 16.2995 21.9462 16.8126C22.017 16.9461 22.055 17.0946 22.0569 17.2458C22.0588 17.3969 22.0246 17.5463 21.9572 17.6816C21.8646 17.9957 21.7041 18.2857 21.4871 18.5309C21.2701 18.7761 21.0018 18.9706 20.7012 19.1006C20.3724 19.2423 20.0921 19.477 19.8949 19.7758C19.6977 20.0746 19.5922 20.4246 19.5912 20.7826C19.5722 21.0916 19.2652 21.3186 18.8002 21.3086C18.132 21.1874 17.4474 21.1874 16.7792 21.3086L16.7771 21.3036ZM29.2082 23.4236C29.1667 23.5442 29.0834 23.646 28.9733 23.7104C28.8632 23.7748 28.7337 23.7975 28.6082 23.7746C28.3833 23.7734 28.1628 23.7116 27.9701 23.5956C26.8201 23.0398 25.5594 22.7512 24.2821 22.7512C23.0049 22.7512 21.7442 23.0398 20.5942 23.5956C20.3383 23.7404 20.0432 23.8006 19.7511 23.7676C19.3511 23.6976 19.2202 23.4266 19.4052 23.0786C19.5874 22.8396 19.8241 22.6478 20.0957 22.5192C20.3673 22.3906 20.6659 22.329 20.9662 22.3396C21.3723 22.4475 21.8035 22.4067 22.1822 22.2246C24.1152 21.1376 26.0192 21.6106 27.9222 22.2976C28.3095 22.4074 28.6696 22.5972 28.9792 22.8546C29.1362 23.0106 29.3042 23.2116 29.2082 23.4266V23.4236ZM30.6471 20.9336C30.5341 21.1686 30.2942 21.2096 30.0202 21.2076C29.8233 21.197 29.6319 21.139 29.4622 21.0386C28.3043 20.4703 27.0319 20.1739 25.742 20.172C24.4521 20.17 23.1788 20.4627 22.0192 21.0276C21.7845 21.1599 21.5161 21.2204 21.2472 21.2016C20.7942 21.1416 20.6472 20.8346 20.8842 20.4516C21.0062 20.266 21.1801 20.1203 21.3842 20.0326C22.7341 19.3547 24.2237 19.0017 25.7342 19.0017C27.2447 19.0017 28.7343 19.3547 30.0841 20.0326C30.2295 20.0971 30.3593 20.1919 30.4651 20.3106C30.6181 20.4906 30.7652 20.6906 30.6542 20.9346L30.6471 20.9336Z" fill="#113D48"/>
<path d="M38.6542 0.837402C38.4012 0.837402 38.3312 0.892412 38.3332 1.15341C38.3462 2.91041 38.3332 4.66842 38.3452 6.42542C38.3452 6.64642 38.3012 6.72541 38.0672 6.70941C37.6772 6.68699 37.2862 6.68699 36.8962 6.70941C36.6412 6.72441 36.5732 6.65441 36.5752 6.39441C36.5892 4.83241 36.5822 3.2704 36.5822 1.7084C36.5822 0.839405 36.5822 0.850409 35.7242 0.838409C35.4702 0.838409 35.4022 0.895411 35.4042 1.15541C35.4172 2.91241 35.4042 4.67041 35.4162 6.42741C35.4162 6.64941 35.3692 6.7274 35.1372 6.7104C34.7472 6.68796 34.3562 6.68796 33.9662 6.7104C33.7102 6.7264 33.6432 6.65341 33.6462 6.39441C33.6602 4.83241 33.6532 3.2704 33.6532 1.7084C33.6532 0.831405 33.6532 0.840417 32.7532 0.839417C32.5292 0.839417 32.4702 0.891415 32.4712 1.11942C32.4802 4.25642 32.4712 7.39241 32.4802 10.5284C32.4774 10.9591 32.6137 11.3792 32.8688 11.7262C33.1239 12.0733 33.4842 12.3286 33.8962 12.4544C34.1112 12.5204 34.1812 12.5944 34.1732 12.8214C34.0799 15.7247 33.9925 18.6277 33.9112 21.5304C33.8252 24.3477 33.7395 27.1654 33.6542 29.9834C33.6452 30.1541 33.6533 30.3253 33.6782 30.4944C33.7703 31.085 34.0836 31.6185 34.5546 31.9865C35.0255 32.3546 35.6189 32.5298 36.2142 32.4764C36.8037 32.4206 37.3501 32.1434 37.7432 31.7006C38.1363 31.2578 38.3468 30.6823 38.3322 30.0904C38.3192 29.0174 38.2772 27.9434 38.2432 26.8704C38.2162 26.0204 38.2132 26.0354 37.3612 26.0364C37.0662 26.0364 37.0312 26.1364 37.0422 26.3994C37.0942 27.6434 37.1422 28.8874 37.1592 30.1314C37.1626 30.2875 37.1343 30.4427 37.076 30.5876C37.0177 30.7325 36.9307 30.8641 36.8202 30.9744C36.7098 31.0847 36.5782 31.1716 36.4333 31.2297C36.2884 31.2878 36.1332 31.3159 35.9772 31.3124C35.6688 31.3074 35.3748 31.181 35.159 30.9607C34.9432 30.7404 34.8229 30.4438 34.8242 30.1354C34.8242 29.8184 34.8362 29.5014 34.8462 29.1844C35.0075 23.9397 35.1686 18.6944 35.3292 13.4484C35.3562 12.5634 35.3482 12.5854 36.2292 12.5484C36.6022 12.5344 36.6512 12.6634 36.6602 12.9944C36.7569 16.6671 36.8646 20.3387 36.9832 24.0094C37.0112 24.8974 37.0252 24.8874 37.9092 24.8644C38.1402 24.8584 38.1912 24.7884 38.1832 24.5644C38.1192 22.8084 38.0672 21.0514 38.0142 19.2954C37.9476 17.1367 37.8839 14.9777 37.8232 12.8184C37.8232 12.6864 37.7662 12.5544 37.9832 12.4764C38.4566 12.3589 38.8718 12.0747 39.1528 11.676C39.4338 11.2773 39.5617 10.7907 39.5132 10.3054V1.70541C39.5122 0.838414 39.5122 0.849402 38.6542 0.837402ZM38.3372 10.4664C38.3446 10.5888 38.3261 10.7114 38.2828 10.8262C38.2396 10.941 38.1726 11.0453 38.0862 11.1324C37.9996 11.2195 37.8956 11.2872 37.781 11.3312C37.6664 11.3751 37.5438 11.3943 37.4212 11.3874C36.4712 11.3967 35.5209 11.3967 34.5702 11.3874C34.4476 11.3943 34.325 11.3751 34.2104 11.3312C34.0958 11.2872 33.9918 11.2195 33.9052 11.1324C33.8188 11.0454 33.7518 10.941 33.7085 10.8262C33.6653 10.7115 33.6467 10.5888 33.6542 10.4664C33.6452 9.68642 33.6602 8.90741 33.6472 8.12741C33.6472 7.91441 33.7132 7.86741 33.9112 7.87041C34.6042 7.88241 35.3002 7.87041 35.9942 7.87041C36.6882 7.87041 37.3832 7.87741 38.0772 7.87041C38.2772 7.87041 38.3472 7.91341 38.3432 8.12741C38.3332 8.90641 38.3462 9.68441 38.3332 10.4654L38.3372 10.4664Z" fill="#113D48"/>
<path d="M10.8052 10.3196C11.4615 8.85287 11.6993 7.23313 11.4922 5.63962C11.4029 4.26776 10.8919 2.957 10.0292 1.88663C9.79041 1.56598 9.48045 1.30511 9.12376 1.12458C8.76707 0.944044 8.37338 0.848763 7.97361 0.846243C7.57385 0.843722 7.17899 0.934029 6.82005 1.11005C6.46111 1.28607 6.1479 1.54301 5.90513 1.86063C5.57509 2.23644 5.30251 2.65901 5.09617 3.11463C4.39963 4.69917 4.18235 6.45301 4.47117 8.15963C4.60829 9.44144 5.13684 10.6499 5.98509 11.6206C6.02777 11.6716 6.05888 11.7314 6.07615 11.7956C6.09342 11.8598 6.09653 11.9271 6.08519 11.9926C6.04919 13.0666 6.01209 14.1396 5.98509 15.2126C5.96109 16.0776 5.96517 16.0666 6.84617 16.0876C7.09017 16.0936 7.14608 16.0236 7.15208 15.7876C7.16708 14.7746 7.20918 13.7626 7.22618 12.7496C7.22618 12.5236 7.27509 12.4346 7.51609 12.5086C7.84225 12.5799 8.17993 12.5799 8.50608 12.5086C8.51508 12.6006 8.52713 12.6846 8.53013 12.7676C8.6768 17.5743 8.82279 22.381 8.96812 27.1876C8.99712 28.1636 9.0341 29.1396 9.0471 30.1156C9.05112 30.2716 9.02374 30.4268 8.96653 30.572C8.90933 30.7172 8.82345 30.8493 8.71409 30.9606C8.60458 31.0719 8.47377 31.16 8.32945 31.2197C8.18512 31.2793 8.03027 31.3092 7.87413 31.3076C7.7183 31.3063 7.56432 31.274 7.42112 31.2126C7.27793 31.1511 7.14841 31.0617 7.04014 30.9496C6.93172 30.8376 6.84668 30.7051 6.79002 30.5598C6.73336 30.4146 6.70626 30.2595 6.71019 30.1036C6.71019 29.7866 6.72411 29.4696 6.73411 29.1516C6.84678 25.455 6.95946 21.7586 7.07212 18.0626C7.09612 17.2546 7.08608 17.2626 6.27208 17.2356C5.98708 17.2246 5.90713 17.2966 5.90013 17.5876C5.84313 19.8936 5.76518 22.1986 5.70018 24.5046C5.64418 26.3956 5.57217 28.2856 5.54417 30.1786C5.5478 30.7532 5.76458 31.306 6.15257 31.7298C6.54056 32.1537 7.07211 32.4184 7.64415 32.4726C8.21398 32.528 8.78438 32.3737 9.24864 32.0387C9.71289 31.7037 10.0391 31.2109 10.1661 30.6526C10.234 30.2432 10.2484 29.8267 10.2091 29.4136C10.0364 23.6556 9.86047 17.8976 9.68113 12.1396C9.67297 12.0625 9.68317 11.9846 9.7108 11.9121C9.73842 11.8396 9.78276 11.7747 9.84019 11.7226C10.2508 11.3216 10.5819 10.8466 10.8161 10.3226L10.8052 10.3196ZM8.99009 10.9096C8.86261 11.0599 8.70394 11.1806 8.52513 11.2634C8.34631 11.3462 8.15174 11.389 7.95469 11.389C7.75765 11.389 7.56295 11.3462 7.38414 11.2634C7.20532 11.1806 7.04665 11.0599 6.91917 10.9096C6.56463 10.5718 6.28879 10.16 6.11119 9.70363C5.31836 7.78844 5.31656 5.63715 6.10618 3.72063C6.2751 3.28749 6.53026 2.89318 6.85618 2.56164C6.98535 2.39247 7.15173 2.25537 7.34251 2.161C7.53329 2.06664 7.74331 2.01754 7.95616 2.01754C8.169 2.01754 8.3789 2.06664 8.56968 2.161C8.76047 2.25537 8.92696 2.39247 9.05613 2.56164C9.6598 3.23852 10.0589 4.07285 10.2071 4.96763C10.3278 5.50302 10.3841 6.05089 10.3751 6.59963C10.4155 7.74934 10.1818 8.89216 9.6931 9.93363C9.51977 10.2975 9.28275 10.6273 8.99315 10.9076L8.99009 10.9096Z" fill="#113D48"/>
<path d="M20.4642 16.8272C20.2702 17.1072 20.0771 17.4012 19.8641 17.6812C19.8111 17.7512 19.7351 17.6572 19.6801 17.6202C19.2041 17.3062 18.7322 16.9832 18.2512 16.6762C18.1072 16.5842 18.1282 16.5162 18.2052 16.3902C18.7052 15.5622 18.7002 15.5602 19.4912 16.0902C19.7642 16.2722 20.0382 16.4532 20.3082 16.6372C20.3722 16.6792 20.4712 16.7002 20.4642 16.8272Z" fill="#113D48"/>
<path d="M16.582 16.4105C16.425 16.8785 16.249 17.3965 16.082 17.9155C16.056 17.9945 16.002 17.9965 15.94 17.9815C15.893 17.9705 15.8479 17.9485 15.8019 17.9355C14.9269 17.6685 14.927 17.6685 15.213 16.8095C15.224 16.7765 15.242 16.7435 15.253 16.7095C15.553 15.8145 15.6209 15.7885 16.4789 16.2095C16.5489 16.2455 16.611 16.2615 16.582 16.4105Z" fill="#113D48"/>
<path d="M18.7681 18.4712C18.9253 18.715 19.0346 18.9865 19.0901 19.2712C19.1271 19.3712 19.2621 19.5212 19.0901 19.5842C18.5781 19.7762 18.0551 19.9372 17.5351 20.1082C17.5214 20.1149 17.5064 20.1184 17.4911 20.1184C17.4759 20.1184 17.4609 20.1149 17.4472 20.1082C17.4337 20.1011 17.4219 20.091 17.4129 20.0787C17.4039 20.0664 17.3978 20.0522 17.3952 20.0372C17.3861 20.0033 17.375 19.9699 17.3621 19.9372C17.0171 19.0632 17.0171 19.0632 17.9041 18.7662L18.7681 18.4712Z" fill="#113D48"/>
</g>
<defs>
<clipPath id="clip0_325_11591">
<rect width="38.599" height="31.648" fill="white" transform="translate(0.913086 0.837402)"/>
</clipPath>
</defs>
</svg>
