<svg width="17" height="21" viewBox="0 0 17 21" fill="none" xmlns="http://www.w3.org/2000/svg">
<path fill-rule="evenodd" clip-rule="evenodd" d="M8.53369 0.670898C10.7217 0.670898 12.8201 1.54009 14.3673 3.08727C15.9145 4.63444 16.7837 6.73286 16.7837 8.9209C16.7837 11.7387 15.2474 14.0451 13.6285 15.6996C12.8197 16.5174 11.9372 17.2587 10.9922 17.9143L10.6017 18.1801L10.4184 18.3021L10.0728 18.5221L9.76478 18.71L9.38344 18.9318C9.12461 19.0796 8.83172 19.1573 8.53369 19.1573C8.23566 19.1573 7.94278 19.0796 7.68394 18.9318L7.30261 18.71L6.82594 18.4166L6.64994 18.3021L6.27411 18.0518C5.25462 17.362 4.30502 16.5742 3.43886 15.6996C1.82002 14.0441 0.283691 11.7387 0.283691 8.9209C0.283691 6.73286 1.15289 4.63444 2.70006 3.08727C4.24724 1.54009 6.34566 0.670898 8.53369 0.670898ZM11.357 6.15531L7.46578 10.0456L5.84511 8.42498C5.6731 8.2531 5.43987 8.15658 5.1967 8.15667C4.95354 8.15676 4.72037 8.25344 4.54848 8.42544C4.3766 8.59744 4.28009 8.83068 4.28017 9.07385C4.28026 9.31701 4.37694 9.55018 4.54894 9.72206L6.75261 11.9257C6.84625 12.0194 6.95743 12.0937 7.07979 12.1444C7.20216 12.1951 7.33332 12.2212 7.46578 12.2212C7.59823 12.2212 7.72939 12.1951 7.85176 12.1444C7.97412 12.0937 8.0853 12.0194 8.17894 11.9257L12.6523 7.45148C12.8193 7.2786 12.9116 7.04704 12.9096 6.8067C12.9075 6.56635 12.8111 6.33644 12.6411 6.16648C12.4712 5.99652 12.2412 5.90012 12.0009 5.89803C11.7605 5.89594 11.5299 5.98834 11.357 6.15531Z" fill="#1CA8CB"/>
</svg>
