<svg width="22" height="22" viewBox="0 0 22 22" fill="none" xmlns="http://www.w3.org/2000/svg">
<path d="M15.5392 6.74898L15.3041 7.47498C15.2474 7.65014 15.2265 7.8349 15.2425 8.01831C15.2586 8.20171 15.3113 8.38002 15.3976 8.54266L15.6754 9.06723C15.7806 9.26565 15.8356 9.48683 15.8355 9.71141V10.4904C15.8355 10.6554 16.0439 10.7255 16.1442 10.5949L16.6269 9.96098C16.8032 9.72947 16.9015 9.44799 16.9077 9.15704C16.9139 8.8661 16.8276 8.5807 16.6612 8.34191L16.1903 7.66541C16.096 7.52992 16.0268 7.37855 15.9861 7.21854L15.8692 6.75998C15.8273 6.59291 15.5929 6.58535 15.5392 6.74898ZM15.8122 11.1717C15.8122 11.1261 15.8303 11.0824 15.8625 11.0501C15.8947 11.0179 15.9385 10.9998 15.984 10.9998H16.3278C16.3734 10.9998 16.4171 11.0179 16.4493 11.0501C16.4816 11.0824 16.4997 11.1261 16.4997 11.1717V12.8904C16.4997 12.936 16.4816 12.9797 16.4493 13.0119C16.4171 13.0442 16.3734 13.0623 16.3278 13.0623H15.984C15.9385 13.0623 15.8947 13.0442 15.8625 13.0119C15.8303 12.9797 15.8122 12.936 15.8122 12.8904V11.1717Z" fill="#1CA8CB"/>
<path d="M20.625 11C20.625 16.3158 16.3158 20.625 11 20.625C5.68425 20.625 1.375 16.3158 1.375 11C1.375 5.68425 5.68425 1.375 11 1.375C16.3158 1.375 20.625 5.68425 20.625 11ZM17.0273 15.5684C18.0258 14.255 18.5652 12.6499 18.5625 11C18.5625 6.82344 15.1766 3.4375 11 3.4375C9.28331 3.4375 7.7 4.0095 6.43156 4.97269L12.4575 11H14.9524C14.998 11 15.0417 11.0181 15.074 11.0503C15.1062 11.0826 15.1243 11.1263 15.1243 11.1719V12.8906C15.1243 12.9362 15.1062 12.9799 15.074 13.0122C15.0417 13.0444 14.998 13.0625 14.9524 13.0625H14.52L17.0273 15.5684ZM15.5684 17.0273L11.605 13.0625H5.5C5.31766 13.0625 5.1428 12.9901 5.01386 12.8611C4.88493 12.7322 4.8125 12.5573 4.8125 12.375V11.6875C4.8125 11.5052 4.88493 11.3303 5.01386 11.2014C5.1428 11.0724 5.31766 11 5.5 11H9.54181L4.97269 6.43156C3.97416 7.745 3.43478 9.3501 3.4375 11C3.4375 15.1766 6.82344 18.5625 11 18.5625C12.7167 18.5625 14.3 17.9905 15.5684 17.0273Z" fill="#1CA8CB"/>
</svg>
