<svg width="18" height="21" viewBox="0 0 18 21" fill="none" xmlns="http://www.w3.org/2000/svg">
<path fill-rule="evenodd" clip-rule="evenodd" d="M1.172 1.672C-1.19209e-07 2.843 0 4.729 0 8.5V12.5C0 16.271 -1.19209e-07 18.157 1.172 19.328C2.344 20.499 4.229 20.5 8 20.5H10C13.771 20.5 15.657 20.5 16.828 19.328C17.999 18.156 18 16.271 18 12.5V8.5C18 4.729 18 2.843 16.828 1.672C15.656 0.501 13.771 0.5 10 0.5H8C4.229 0.5 2.343 0.5 1.172 1.672ZM5 7.75C4.80109 7.75 4.61032 7.82902 4.46967 7.96967C4.32902 8.11032 4.25 8.30109 4.25 8.5C4.25 8.69891 4.32902 8.88968 4.46967 9.03033C4.61032 9.17098 4.80109 9.25 5 9.25H13C13.1989 9.25 13.3897 9.17098 13.5303 9.03033C13.671 8.88968 13.75 8.69891 13.75 8.5C13.75 8.30109 13.671 8.11032 13.5303 7.96967C13.3897 7.82902 13.1989 7.75 13 7.75H5ZM5 11.75C4.80109 11.75 4.61032 11.829 4.46967 11.9697C4.32902 12.1103 4.25 12.3011 4.25 12.5C4.25 12.6989 4.32902 12.8897 4.46967 13.0303C4.61032 13.171 4.80109 13.25 5 13.25H10C10.1989 13.25 10.3897 13.171 10.5303 13.0303C10.671 12.8897 10.75 12.6989 10.75 12.5C10.75 12.3011 10.671 12.1103 10.5303 11.9697C10.3897 11.829 10.1989 11.75 10 11.75H5Z" fill="#1CA8CB"/>
</svg>
