<svg width="18" height="21" viewBox="0 0 18 21" fill="none" xmlns="http://www.w3.org/2000/svg">
<path fill-rule="evenodd" clip-rule="evenodd" d="M1.172 1.59046C-1.19209e-07 2.76146 0 4.64746 0 8.41846V12.4185C0 16.1895 -1.19209e-07 18.0755 1.172 19.2465C2.344 20.4175 4.229 20.4185 8 20.4185H10C13.771 20.4185 15.657 20.4185 16.828 19.2465C17.999 18.0745 18 16.1895 18 12.4185V8.41846C18 4.64746 18 2.76146 16.828 1.59046C15.656 0.419457 13.771 0.418457 10 0.418457H8C4.229 0.418457 2.343 0.418457 1.172 1.59046ZM5 7.66846C4.80109 7.66846 4.61032 7.74748 4.46967 7.88813C4.32902 8.02878 4.25 8.21954 4.25 8.41846C4.25 8.61737 4.32902 8.80813 4.46967 8.94879C4.61032 9.08944 4.80109 9.16846 5 9.16846H13C13.1989 9.16846 13.3897 9.08944 13.5303 8.94879C13.671 8.80813 13.75 8.61737 13.75 8.41846C13.75 8.21954 13.671 8.02878 13.5303 7.88813C13.3897 7.74748 13.1989 7.66846 13 7.66846H5ZM5 11.6685C4.80109 11.6685 4.61032 11.7475 4.46967 11.8881C4.32902 12.0288 4.25 12.2195 4.25 12.4185C4.25 12.6174 4.32902 12.8081 4.46967 12.9488C4.61032 13.0894 4.80109 13.1685 5 13.1685H10C10.1989 13.1685 10.3897 13.0894 10.5303 12.9488C10.671 12.8081 10.75 12.6174 10.75 12.4185C10.75 12.2195 10.671 12.0288 10.5303 11.8881C10.3897 11.7475 10.1989 11.6685 10 11.6685H5Z" fill="white"/>
</svg>
