<svg width="19" height="19" viewBox="0 0 19 19" fill="none" xmlns="http://www.w3.org/2000/svg">
<path d="M9.50015 2.10596C9.50015 1.6584 9.67794 1.22918 9.99441 0.912714C10.3109 0.596247 10.7401 0.418457 11.1876 0.418457C11.6352 0.418457 12.0644 0.596247 12.3809 0.912714C12.6974 1.22918 12.8751 1.6584 12.8751 2.10596C12.8751 2.55351 12.6974 2.98273 12.3809 3.2992C12.0644 3.61567 11.6352 3.79346 11.1876 3.79346C10.7401 3.79346 10.3109 3.61567 9.99441 3.2992C9.67794 2.98273 9.50015 2.55351 9.50015 2.10596ZM11.3037 8.529L10.6322 11.2114L12.3794 12.9587C12.6959 13.2751 12.8751 13.704 12.8751 14.1505V17.2935C12.8751 17.9157 12.3724 18.4185 11.7501 18.4185C11.1279 18.4185 10.6251 17.9157 10.6251 17.2935V14.386L8.0271 11.788C7.47163 11.2325 7.24663 10.431 7.43296 9.66807L8.15015 6.71494C8.44195 5.51611 9.65132 4.78486 10.8466 5.08369C11.5146 5.25244 12.0982 5.66025 12.4779 6.2333L13.4763 7.73096H14.5626V6.88721C14.5626 6.41963 14.9388 6.04346 15.4064 6.04346C15.874 6.04346 16.2501 6.41963 16.2501 6.88721V8.84893C16.2501 8.85244 16.2501 8.85596 16.2501 8.85596V8.86299V17.5747C16.2501 18.0423 15.874 18.4185 15.4064 18.4185C14.9388 18.4185 14.5626 18.0423 14.5626 17.5747V9.98096H13.1775C12.615 9.98096 12.0876 9.69971 11.7748 9.22861L11.3072 8.52549L11.3037 8.529ZM5.60132 17.0087L6.87398 12.1606C6.97944 12.3083 7.09898 12.4489 7.22905 12.579L8.7021 14.0521L7.77398 17.5782C7.61577 18.1794 7.00054 18.538 6.39937 18.3798C5.7982 18.2216 5.4396 17.6063 5.5978 17.0052L5.60132 17.0087ZM7.55249 4.84463L6.31499 9.7876C6.20952 10.213 5.79116 10.4872 5.35874 10.4169L3.67476 10.1356C3.18257 10.0548 2.86968 9.5626 2.99976 9.08096L3.87163 5.86768C4.20562 4.64424 5.31655 3.79346 6.5857 3.79346H6.73335C7.28179 3.79346 7.68609 4.31025 7.55249 4.84111V4.84463Z" fill="#1CA8CB"/>
</svg>
