<svg width="22" height="22" viewBox="0 0 22 22" fill="none" xmlns="http://www.w3.org/2000/svg">
<path d="M16.5 11.6875C18.7777 11.6875 20.625 12.1598 20.625 14.4375C20.625 14.6198 20.5526 14.7947 20.4236 14.9236C20.2947 15.0526 20.1198 15.125 19.9375 15.125H19.25V15.8125C19.25 16.1772 19.1051 16.5269 18.8473 16.7848C18.5894 17.0426 18.2397 17.1875 17.875 17.1875C17.5103 17.1875 17.1606 17.0426 16.9027 16.7848C16.6449 16.5269 16.5 16.1772 16.5 15.8125V15.125H5.5V15.8125C5.5 16.1772 5.35513 16.5269 5.09727 16.7848C4.83941 17.0426 4.48967 17.1875 4.125 17.1875C3.76033 17.1875 3.41059 17.0426 3.15273 16.7848C2.89487 16.5269 2.75 16.1772 2.75 15.8125V15.125H2.0625C1.88016 15.125 1.7053 15.0526 1.57636 14.9236C1.44743 14.7947 1.375 14.6198 1.375 14.4375C1.375 14.4011 1.38463 14.3667 1.386 14.3309C1.38463 14.3117 1.375 14.2966 1.375 14.278V9.56106C1.375 8.83987 1.96488 8.25 2.68606 8.25H2.81394C3.53513 8.25 4.125 8.83987 4.125 9.56106V11.6875H16.5ZM2.81394 6.875H2.68606C2.27494 6.875 1.72425 7.00837 1.375 7.17475C1.92156 5.05794 3.98819 3.4375 7.205 3.4375C10.2857 3.4375 12.2169 4.89294 13.0625 6.875H16.7399C17.0696 6.87491 17.396 6.93977 17.7006 7.06588C18.0052 7.19199 18.2819 7.37688 18.515 7.60998C18.7481 7.84308 18.933 8.11982 19.0591 8.4244C19.1852 8.72897 19.2501 9.05541 19.25 9.38506V9.68481C19.2503 9.76732 19.2342 9.84906 19.2028 9.92534C19.1713 10.0016 19.1251 10.0709 19.0668 10.1293C19.0084 10.1876 18.9391 10.2338 18.8628 10.2653C18.7866 10.2967 18.7048 10.3128 18.6223 10.3125H5.5V9.56106C5.49945 8.84884 5.21628 8.16595 4.71267 7.66233C4.20905 7.15872 3.52616 6.87555 2.81394 6.875Z" fill="#1CA8CB"/>
</svg>
