<svg width="31" height="31" viewBox="0 0 31 31" fill="none" xmlns="http://www.w3.org/2000/svg">
<path d="M21.7466 25.8125L26.0903 21.5L24.7778 20.1875L21.7466 23.1562L20.5278 21.9375L19.2153 23.2812L21.7466 25.8125ZM7.65283 11.75H22.6528V9.25H7.65283V11.75ZM22.6528 29.25C20.9237 29.25 19.4499 28.6404 18.2316 27.4213C17.0132 26.2021 16.4037 24.7283 16.4028 23C16.402 21.2717 17.0116 19.7979 18.2316 18.5788C19.4516 17.3596 20.9253 16.75 22.6528 16.75C24.3803 16.75 25.8545 17.3596 27.0753 18.5788C28.2962 19.7979 28.9053 21.2717 28.9028 23C28.9003 24.7283 28.2907 26.2025 27.0741 27.4225C25.8574 28.6425 24.3837 29.2517 22.6528 29.25ZM3.90283 28V6.75C3.90283 6.0625 4.14783 5.47417 4.63783 4.985C5.12783 4.49583 5.71617 4.25083 6.40283 4.25H23.9028C24.5903 4.25 25.1791 4.495 25.6691 4.985C26.1591 5.475 26.4037 6.06333 26.4028 6.75V15.0938C25.8195 14.8021 25.2099 14.5883 24.5741 14.4525C23.9382 14.3167 23.2978 14.2492 22.6528 14.25H7.65283V16.75H16.5278C16.1737 17.1042 15.8457 17.4896 15.5441 17.9062C15.2424 18.3229 14.9766 18.7708 14.7466 19.25H7.65283V21.75H13.9966C13.9549 21.9583 13.9291 22.1617 13.9191 22.36C13.9091 22.5583 13.9037 22.7717 13.9028 23C13.9028 23.875 14.0228 24.7138 14.2628 25.5163C14.5028 26.3188 14.862 27.0842 15.3403 27.8125L15.1528 28L13.2778 26.125L11.4028 28L9.52783 26.125L7.65283 28L5.77783 26.125L3.90283 28Z" fill="#010B13"/>
</svg>
