<svg width="30" height="30" viewBox="0 0 30 30" fill="none" xmlns="http://www.w3.org/2000/svg">
<path d="M26.996 13.998H25.93C25.7301 11.7841 24.8593 9.68384 23.434 7.978L24.19 7.22C24.3795 7.03541 24.4882 6.78324 24.4922 6.5187C24.4962 6.25416 24.3952 5.99882 24.2113 5.8086C24.0274 5.61837 23.7757 5.50876 23.5112 5.50378C23.2466 5.49879 22.9909 5.59884 22.8 5.782L22.776 5.806L22.02 6.562C20.3136 5.13628 18.2126 4.26547 15.998 4.066V3C15.998 2.73478 15.8926 2.48043 15.7051 2.29289C15.5176 2.10536 15.2632 2 14.998 2C14.7328 2 14.4784 2.10536 14.2909 2.29289C14.1034 2.48043 13.998 2.73478 13.998 3V4.066C11.7838 4.26644 9.68359 5.13794 7.978 6.564L7.22 5.8C7.0314 5.61784 6.7788 5.51705 6.5166 5.51933C6.2544 5.5216 6.00359 5.62677 5.81818 5.81218C5.63277 5.99759 5.5276 6.2484 5.52533 6.5106C5.52305 6.7728 5.62384 7.0254 5.806 7.214L6.562 7.968C5.13513 9.67737 4.26491 11.7821 4.068 14H3C2.73478 14 2.48043 14.1054 2.29289 14.2929C2.10536 14.4804 2 14.7348 2 15C2 15.2652 2.10536 15.5196 2.29289 15.7071C2.48043 15.8946 2.73478 16 3 16H4.066C4.2653 18.2137 5.13538 20.3139 6.56 22.02L5.804 22.776C5.61304 22.9603 5.50313 23.213 5.49844 23.4783C5.49376 23.7437 5.59467 24 5.779 24.191C5.96333 24.382 6.21596 24.4919 6.48132 24.4966C6.74669 24.5012 7.00304 24.4003 7.194 24.216L7.218 24.19L7.974 23.434C9.68014 24.8604 11.7811 25.732 13.996 25.932V26.998C13.996 27.2632 14.1014 27.5176 14.2889 27.7051C14.4764 27.8926 14.7308 27.998 14.996 27.998C15.2612 27.998 15.5156 27.8926 15.7031 27.7051C15.8906 27.5176 15.996 27.2632 15.996 26.998V25.932C18.2102 25.7316 20.3104 24.8601 22.016 23.434L22.774 24.19C22.9586 24.3795 23.2108 24.4882 23.4753 24.4922C23.7398 24.4962 23.9952 24.3952 24.1854 24.2113C24.3756 24.0274 24.4852 23.7757 24.4902 23.5112C24.4952 23.2466 24.3952 22.9909 24.212 22.8L24.188 22.776L23.432 22.02C24.8581 20.3144 25.7296 18.2142 25.93 16H26.996C27.2612 16 27.5156 15.8946 27.7031 15.7071C27.8906 15.5196 27.996 15.2652 27.996 15C27.996 14.7348 27.8906 14.4804 27.7031 14.2929C27.5156 14.1054 27.2612 13.998 26.996 13.998ZM15.996 6.104C17.6735 6.28842 19.264 6.94598 20.582 8L16.282 12.3C16.1882 12.2577 16.0928 12.219 15.996 12.184V6.104ZM13.996 6.104V12.184C13.8999 12.219 13.8051 12.2577 13.712 12.3L9.412 8C10.73 6.94598 12.3185 6.28842 13.996 6.104ZM7.998 9.414L12.298 13.714C12.2563 13.8078 12.2183 13.9032 12.184 14H6.1C6.28442 12.3225 6.94198 10.732 7.996 9.414M6.1 16H12.182C12.2153 16.096 12.254 16.1913 12.298 16.286L7.998 20.586C6.94327 19.2682 6.285 17.6777 6.1 16ZM14 23.894C12.3223 23.709 10.7318 23.0507 9.414 21.996L13.714 17.696C13.8073 17.74 13.9027 17.7787 14 17.812V23.894ZM16 23.894V17.814C16.0973 17.7793 16.1927 17.7407 16.286 17.698L20.586 21.998C19.268 23.052 17.6775 23.7096 16 23.894ZM22 20.582L17.7 16.282C17.744 16.1887 17.7827 16.0933 17.816 15.996H23.898C23.7124 17.6739 23.0535 19.2645 21.998 20.582M17.814 14C17.779 13.9032 17.7403 13.8078 17.698 13.714L21.998 9.414C23.0517 10.7314 23.7092 12.3212 23.894 13.998L17.814 14Z" fill="white"/>
</svg>
