<svg width="31" height="31" viewBox="0 0 31 31" fill="none" xmlns="http://www.w3.org/2000/svg">
<path fill-rule="evenodd" clip-rule="evenodd" d="M15.1528 28C9.26033 28 6.31408 28 4.48283 26.1688C2.65283 24.34 2.65283 21.3925 2.65283 15.5C2.65283 9.6075 2.65283 6.66125 4.48283 4.83C6.31533 3 9.26033 3 15.1528 3C21.0453 3 23.9916 3 25.8216 4.83C27.6528 6.6625 27.6528 9.6075 27.6528 15.5C27.6528 21.3925 27.6528 24.3387 25.8216 26.1688C23.9928 28 21.0453 28 15.1528 28ZM15.1528 10.1875C14.3766 10.1875 13.7466 10.8175 13.7466 11.5938C13.7466 11.8424 13.6478 12.0808 13.472 12.2567C13.2962 12.4325 13.0577 12.5312 12.8091 12.5312C12.5604 12.5312 12.322 12.4325 12.1462 12.2567C11.9704 12.0808 11.8716 11.8424 11.8716 11.5938C11.8716 11.0562 12.0037 10.5268 12.2563 10.0523C12.5088 9.57772 12.8741 9.17249 13.32 8.87221C13.7659 8.57193 14.2787 8.38581 14.8134 8.3302C15.3481 8.2746 15.8883 8.35122 16.3864 8.55333C16.8846 8.75543 17.3254 9.07684 17.6702 9.48927C18.015 9.90171 18.2532 10.3925 18.3639 10.9186C18.4745 11.4447 18.4542 11.9899 18.3047 12.5063C18.1552 13.0226 17.8811 13.4944 17.5066 13.88C17.3916 13.9983 17.2816 14.1096 17.1766 14.2137C16.9234 14.4563 16.6851 14.7139 16.4628 14.985C16.1878 15.3375 16.0903 15.5962 16.0903 15.8125V16.75C16.0903 16.9986 15.9916 17.2371 15.8157 17.4129C15.6399 17.5887 15.4015 17.6875 15.1528 17.6875C14.9042 17.6875 14.6657 17.5887 14.4899 17.4129C14.3141 17.2371 14.2153 16.9986 14.2153 16.75V15.8125C14.2153 14.9937 14.5966 14.33 14.9828 13.8337C15.2691 13.4662 15.6278 13.1087 15.9203 12.8162C16.0087 12.7287 16.0891 12.6479 16.1616 12.5738C16.3542 12.3755 16.4842 12.1249 16.5352 11.8532C16.5862 11.5815 16.556 11.3008 16.4483 11.0462C16.3407 10.7916 16.1604 10.5743 15.93 10.4216C15.6996 10.2689 15.4293 10.1875 15.1528 10.1875ZM15.1528 21.75C15.4844 21.75 15.8023 21.6183 16.0367 21.3839C16.2711 21.1495 16.4028 20.8315 16.4028 20.5C16.4028 20.1685 16.2711 19.8505 16.0367 19.6161C15.8023 19.3817 15.4844 19.25 15.1528 19.25C14.8213 19.25 14.5034 19.3817 14.2689 19.6161C14.0345 19.8505 13.9028 20.1685 13.9028 20.5C13.9028 20.8315 14.0345 21.1495 14.2689 21.3839C14.5034 21.6183 14.8213 21.75 15.1528 21.75Z" fill="#010B13"/>
</svg>
