<svg width="30" height="30" viewBox="0 0 30 30" fill="none" xmlns="http://www.w3.org/2000/svg">
<path d="M18.7499 2.5L16.8749 4.375L18.7499 6.25L20.6249 4.375L18.7499 2.5ZM13.7499 3.75C12.4999 11.25 21.2499 12.5 24.9999 7.5L22.4999 5.625C21.2499 7.5 16.2499 10 13.7499 3.75ZM11.2499 8.75C8.74988 8.75 5.62488 10.625 5.62488 10.625L7.49988 13.75C8.74988 12.5 11.2499 11.875 12.4999 12.5C14.9999 13.75 11.2499 16.25 8.74988 15V19.375C12.4999 17.5 14.9999 20 13.7499 21.875C9.99988 27.5 3.74988 20 3.74988 16.25C1.24988 23.75 7.49988 27.5 11.2499 27.5C14.9999 27.5 17.4999 25 15.6249 18.75H17.4999C15.6249 24.375 22.4999 30 26.2499 22.5C27.4999 20 27.4999 11.875 21.2499 11.875C16.2499 11.875 17.4999 18.75 13.1249 16.875C17.4999 12.5 14.9999 8.75 11.2499 8.75ZM23.7499 15C27.4999 18.75 18.7499 26.25 18.7499 18.75C18.7499 16.25 21.2499 13.125 23.7499 15Z" fill="white"/>
</svg>
