<svg width="31" height="31" viewBox="0 0 31 31" fill="none" xmlns="http://www.w3.org/2000/svg">
<path d="M15.9694 3.13654L27.2194 14.3865C28.0069 15.174 27.4494 16.5203 26.3357 16.5203H25.0857V24.0203C25.0857 25.0149 24.6906 25.9687 23.9873 26.6719C23.2841 27.3752 22.3302 27.7703 21.3357 27.7703H20.0857V19.0203C20.0857 18.0638 19.7203 17.1434 19.0641 16.4475C18.4079 15.7515 17.5105 15.3327 16.5557 15.2765L16.3357 15.2703H13.8357C12.8411 15.2703 11.8873 15.6654 11.184 16.3686C10.4808 17.0719 10.0857 18.0257 10.0857 19.0203V27.7703H8.83568C7.84112 27.7703 6.88729 27.3752 6.18403 26.6719C5.48077 25.9687 5.08568 25.0149 5.08568 24.0203V16.5203H3.83568C2.72318 16.5203 2.16443 15.174 2.95193 14.3865L14.2019 3.13654C14.4363 2.90221 14.7542 2.77056 15.0857 2.77056C15.4171 2.77056 15.735 2.90221 15.9694 3.13654ZM16.3357 17.7703C16.6672 17.7703 16.9851 17.902 17.2196 18.1364C17.454 18.3708 17.5857 18.6888 17.5857 19.0203V27.7703H12.5857V19.0203C12.5857 18.7141 12.6981 18.4186 12.9016 18.1898C13.105 17.961 13.3854 17.8149 13.6894 17.779L13.8357 17.7703H16.3357Z" fill="#010B13"/>
</svg>
