<svg width="31" height="31" viewBox="0 0 31 31" fill="none" xmlns="http://www.w3.org/2000/svg">
<path d="M13.9028 8H16.4028V5.5H13.9028V8ZM15.1528 15.5C13.5695 15.5 12.0591 15.1717 10.6216 14.515C9.18408 13.8583 7.77783 13.1242 6.40283 12.3125V10.5C6.40283 9.8125 6.64783 9.22417 7.13783 8.735C7.62783 8.24583 8.21617 8.00083 8.90283 8H11.4028V4.25C11.4028 3.89583 11.5228 3.59917 11.7628 3.36C12.0028 3.12083 12.2995 3.00083 12.6528 3H17.6528C18.007 3 18.3041 3.12 18.5441 3.36C18.7841 3.6 18.9037 3.89667 18.9028 4.25V8H21.4028C22.0903 8 22.6791 8.245 23.1691 8.735C23.6591 9.225 23.9037 9.81333 23.9028 10.5V12.3125C22.5278 13.125 21.1216 13.8596 19.6841 14.5163C18.2466 15.1729 16.7362 15.5008 15.1528 15.5ZM8.90283 28V26.75C8.21533 26.75 7.627 26.5054 7.13783 26.0163C6.64867 25.5271 6.40367 24.9383 6.40283 24.25V15.125C7.5695 15.8333 8.77283 16.4375 10.0128 16.9375C11.2528 17.4375 12.5495 17.7708 13.9028 17.9375V19.25H16.4028V17.9375C17.757 17.7708 19.0541 17.4375 20.2941 16.9375C21.5341 16.4375 22.737 15.8333 23.9028 15.125V24.25C23.9028 24.9375 23.6582 25.5263 23.1691 26.0163C22.6799 26.5063 22.0912 26.7508 21.4028 26.75V28H18.9028V26.75H11.4028V28H8.90283Z" fill="#010B13"/>
</svg>
