<svg width="28" height="29" viewBox="0 0 28 29" fill="none" xmlns="http://www.w3.org/2000/svg">
<g clip-path="url(#clip0_127_318)">
<path d="M14.2027 25.4118L11.9632 18.6934H3.00537L5.24483 25.4118H14.2027ZM14.2027 25.4118H18.6816" stroke="white" stroke-width="1.2597" stroke-linecap="round" stroke-linejoin="round"/>
<path d="M14.203 15.334V14.7741C14.203 12.6627 14.203 11.607 13.547 10.9511C12.8911 10.2952 11.8354 10.2952 9.72407 10.2952C7.61266 10.2952 6.55697 10.2952 5.90105 10.9511C5.24512 11.607 5.24512 12.6627 5.24512 14.7741V15.334" stroke="white" stroke-width="1.2597" stroke-linecap="round" stroke-linejoin="round"/>
<path d="M22.0409 15.3347C22.0409 16.5716 21.0384 17.5741 19.8015 17.5741C18.5646 17.5741 17.562 16.5716 17.562 15.3347C17.562 14.0979 18.5646 13.0952 19.8015 13.0952C21.0384 13.0952 22.0409 14.0979 22.0409 15.3347Z" stroke="white" stroke-width="1.2597"/>
<path d="M11.9633 5.25705C11.9633 6.49387 10.9606 7.49651 9.72387 7.49651C8.48702 7.49651 7.48438 6.49387 7.48438 5.25705C7.48438 4.02022 8.48702 3.01758 9.72387 3.01758C10.9606 3.01758 11.9633 4.02022 11.9633 5.25705Z" stroke="white" stroke-width="1.2597"/>
<path d="M16.4424 20.3728H23.1608C24.3976 20.3728 25.4002 21.3754 25.4002 22.6123V23.1721C25.4002 24.409 24.3976 25.4116 23.1608 25.4116H22.041" stroke="white" stroke-width="1.2597" stroke-linecap="round"/>
</g>
<defs>
<clipPath id="clip0_127_318">
<rect width="26.8736" height="27.7134" fill="white" transform="translate(0.766113 0.35791)"/>
</clipPath>
</defs>
</svg>
