<svg width="30" height="30" viewBox="0 0 30 30" fill="none" xmlns="http://www.w3.org/2000/svg">
<path d="M20 25C24.65 22.5 27.5 19.0875 27.5 15C27.5 11.675 25.575 8.625 22.3625 6.25H22.275C23.7867 7.97979 24.6137 10.2027 24.6 12.5C24.6 16.25 22.5 18.75 19.375 21.0375C19.375 21.05 17.975 21.925 16.25 23.0125V21.6625L18.75 20C18.75 20 18.5 19.25 18.225 18.075C20.75 16.975 22.5 14.6125 22.5 11.875C22.5 9.175 20.8 6.8375 18.3125 5.7125C18.55 4.5375 18.75 3.75 18.75 3.75L15 1.25L11.25 3.75C11.25 3.75 11.45 4.5375 11.6875 5.7125C9.2125 6.8375 7.5 9.175 7.5 11.875C7.5 14.6125 9.25 16.975 11.775 18.075C11.5 19.25 11.25 20 11.25 20L13.75 21.6625V23.0125C12.025 21.925 10.625 21.05 10.625 21.0375C7.5 18.75 5.4 16.25 5.4 12.5C5.4 10.1125 6.25 7.9375 7.725 6.25H7.65C4.425 8.625 2.5 11.675 2.5 15C2.5 19.0875 5.3625 22.5 10 25L11.25 23.125L13.65 24.6625L9.175 27.5L10 28.75L13.75 26.3375V28.75H16.25V26.3375L20 28.75L20.825 27.5L16.35 24.6625L18.75 23.125L20 25ZM20.9375 11.875C20.9375 13.8625 19.7 15.575 17.8875 16.4875C17.675 15.2875 17.5 13.9 17.5 12.5C17.5 10.8375 17.75 8.9375 18.025 7.325C19.7625 8.25 20.9375 9.9375 20.9375 11.875ZM9.0625 11.875C9.0625 9.9375 10.2375 8.25 11.9875 7.325C12.25 8.9375 12.5 10.8375 12.5 12.5C12.5 13.9 12.325 15.2875 12.1125 16.4875C10.3 15.575 9.0625 13.8625 9.0625 11.875Z" fill="white"/>
</svg>
