<svg width="31" height="31" viewBox="0 0 31 31" fill="none" xmlns="http://www.w3.org/2000/svg">
<path d="M25.6154 27.0625C25.6154 27.3111 25.5167 27.5496 25.3408 27.7254C25.165 27.9012 24.9266 28 24.6779 28H5.62793C5.37929 28 5.14083 27.9012 4.96502 27.7254C4.7892 27.5496 4.69043 27.3111 4.69043 27.0625C4.69043 21.9375 10.3154 17.9625 15.1529 17.9625C19.9904 17.9625 25.6154 21.9375 25.6154 27.0625ZM21.5279 9.3875C21.5255 10.6478 21.1495 11.8791 20.4475 12.9258C19.7455 13.9726 18.749 14.7877 17.5839 15.2683C16.4188 15.7489 15.1374 15.8734 13.9016 15.626C12.6658 15.3786 11.531 14.7704 10.6407 13.8784C9.75041 12.9863 9.14449 11.8504 8.89952 10.6141C8.65456 9.37782 8.78153 8.09667 9.2644 6.93251C9.74728 5.76836 10.5644 4.77346 11.6125 4.07352C12.6606 3.37358 13.8926 3 15.1529 3C16.8448 3.00331 18.4663 3.67774 19.6615 4.87527C20.8567 6.0728 21.5279 7.69559 21.5279 9.3875Z" fill="#010B13"/>
</svg>
