<svg width="32" height="32" viewBox="0 0 32 32" fill="none" xmlns="http://www.w3.org/2000/svg">
<path d="M14.6665 7.99999H17.3332V5.33332H14.6665V7.99999ZM15.9998 16C14.3109 16 12.6998 15.6498 11.1665 14.9493C9.63317 14.2489 8.13317 13.4658 6.6665 12.6V10.6667C6.6665 9.93332 6.92784 9.30577 7.4505 8.78399C7.97317 8.26221 8.60073 8.00088 9.33317 7.99999H11.9998V3.99999C11.9998 3.62221 12.1278 3.30577 12.3838 3.05066C12.6398 2.79555 12.9563 2.66755 13.3332 2.66666H18.6665C19.0443 2.66666 19.3612 2.79466 19.6172 3.05066C19.8732 3.30666 20.0007 3.6231 19.9998 3.99999V7.99999H22.6665C23.3998 7.99999 24.0278 8.26132 24.5505 8.78399C25.0732 9.30666 25.3341 9.93421 25.3332 10.6667V12.6C23.8665 13.4667 22.3665 14.2502 20.8332 14.9507C19.2998 15.6511 17.6887 16.0009 15.9998 16ZM9.33317 28C8.59984 28 7.97228 27.7391 7.4505 27.2173C6.92873 26.6955 6.66739 26.0675 6.6665 25.3333V15.6C7.91095 16.3555 9.1945 17 10.5172 17.5333C11.8398 18.0667 13.2229 18.4222 14.6665 18.6V18.6667C14.6665 19.0444 14.7945 19.3613 15.0505 19.6173C15.3065 19.8733 15.6229 20.0009 15.9998 20C16.3767 19.9991 16.6936 19.8711 16.9505 19.616C17.2074 19.3609 17.3349 19.0444 17.3332 18.6667V18.6C18.7776 18.4222 20.1612 18.0667 21.4838 17.5333C22.8065 17 24.0896 16.3555 25.3332 15.6V25.3333C25.3332 26.0667 25.0723 26.6947 24.5505 27.2173C24.0287 27.74 23.4007 28.0009 22.6665 28C22.6665 28.3778 22.5385 28.6947 22.2825 28.9507C22.0265 29.2067 21.7101 29.3342 21.3332 29.3333C20.9776 29.3333 20.7278 29.172 20.5838 28.8493C20.4398 28.5267 20.2452 28.2435 19.9998 28H11.9998C11.9998 28.3778 11.8718 28.6947 11.6158 28.9507C11.3598 29.2067 11.0434 29.3342 10.6665 29.3333C10.3109 29.3333 10.0612 29.172 9.91717 28.8493C9.77317 28.5267 9.5785 28.2435 9.33317 28Z" fill="url(#paint0_linear_1579_8562)"/>
<defs>
<linearGradient id="paint0_linear_1579_8562" x1="15.9998" y1="2.66666" x2="15.9998" y2="29.3333" gradientUnits="userSpaceOnUse">
<stop stop-color="#71C1FF"/>
<stop offset="1" stop-color="#0073D2"/>
</linearGradient>
</defs>
</svg>
