<svg width="31" height="31" viewBox="0 0 31 31" fill="none" xmlns="http://www.w3.org/2000/svg">
<path fill-rule="evenodd" clip-rule="evenodd" d="M10.3348 5.5C9.67378 5.50021 9.02459 5.67513 8.45297 6.00704C7.88135 6.33895 7.40762 6.81605 7.07977 7.39L4.58852 11.75H3.13477C3.00216 11.75 2.87498 11.8027 2.78121 11.8964C2.68744 11.9902 2.63477 12.1174 2.63477 12.25V12.8438C2.63452 13.067 2.70896 13.2838 2.84623 13.4598C2.98351 13.6359 3.17572 13.7609 3.39227 13.815L3.42227 13.8212C2.90031 14.9046 2.70196 16.1155 2.85102 17.3087L3.75727 24.56C3.83284 25.1647 4.12671 25.7211 4.58364 26.1243C5.04056 26.5276 5.62907 26.7501 6.23852 26.75H6.38477C7.04781 26.75 7.68369 26.4866 8.15253 26.0178C8.62137 25.5489 8.88477 24.913 8.88477 24.25H21.3848C21.3848 24.913 21.6482 25.5489 22.117 26.0178C22.5858 26.4866 23.2217 26.75 23.8848 26.75H24.031C24.6405 26.7501 25.229 26.5276 25.6859 26.1243C26.1428 25.7211 26.4367 25.1647 26.5123 24.56L27.4185 17.31C27.5676 16.1168 27.3692 14.9058 26.8473 13.8225L26.8773 13.815C27.0938 13.7609 27.286 13.6359 27.4233 13.4598C27.5606 13.2838 27.635 13.067 27.6348 12.8438V12.25C27.6348 12.1174 27.5821 11.9902 27.4883 11.8964C27.3946 11.8027 27.2674 11.75 27.1348 11.75H25.681L23.1898 7.39C22.8619 6.81605 22.3882 6.33895 21.8166 6.00704C21.2449 5.67513 20.5958 5.50021 19.9348 5.5H10.3348ZM23.1623 12.38L21.0198 8.63C20.9104 8.4385 20.7523 8.27935 20.5615 8.1687C20.3707 8.05805 20.1541 7.99985 19.9335 8H10.336C10.1155 7.99985 9.89882 8.05805 9.70804 8.1687C9.51726 8.27935 9.35916 8.4385 9.24977 8.63L7.10727 12.38C6.99869 12.5701 6.94194 12.7853 6.94268 13.0042C6.94342 13.2231 7.00163 13.438 7.11148 13.6273C7.22134 13.8167 7.37899 13.9738 7.56866 14.0831C7.75833 14.1924 7.97337 14.2499 8.19227 14.25H22.0773C22.2962 14.2499 22.5112 14.1924 22.7009 14.0831C22.8905 13.9738 23.0482 13.8167 23.1581 13.6273C23.2679 13.438 23.3261 13.2231 23.3269 13.0042C23.3276 12.7853 23.2708 12.5701 23.1623 12.38ZM6.38477 19.2987V18.4237C6.38471 18.3155 6.41278 18.209 6.46624 18.1149C6.51969 18.0207 6.5967 17.942 6.68971 17.8866C6.78271 17.8311 6.88853 17.8008 6.99679 17.7985C7.10505 17.7963 7.21204 17.8222 7.30727 17.8738L10.7348 19.7237C11.201 19.9762 11.0073 20.685 10.4773 20.6638L7.58477 20.5475C7.26242 20.5346 6.95754 20.3976 6.7339 20.1651C6.51025 19.9326 6.38515 19.6226 6.38477 19.3V19.2987ZM23.8848 18.4237V19.2987C23.885 19.6218 23.7602 19.9324 23.5365 20.1654C23.3128 20.3984 23.0075 20.5358 22.6848 20.5487L19.7923 20.6638C19.2623 20.685 19.0673 19.9762 19.5348 19.7237L22.9623 17.8738C23.0575 17.8222 23.1645 17.7963 23.2727 17.7985C23.381 17.8008 23.4868 17.8311 23.5798 17.8866C23.6728 17.942 23.7498 18.0207 23.8033 18.1149C23.8568 18.209 23.8848 18.3155 23.8848 18.4237Z" fill="url(#paint0_linear_1405_100)"/>
<defs>
<linearGradient id="paint0_linear_1405_100" x1="15.1348" y1="5.5" x2="15.1348" y2="26.75" gradientUnits="userSpaceOnUse">
<stop stop-color="#71C1FF"/>
<stop offset="1" stop-color="#0073D2"/>
</linearGradient>
</defs>
</svg>
