<svg width="31" height="31" viewBox="0 0 31 31" fill="none" xmlns="http://www.w3.org/2000/svg">
<path d="M15.9511 3.13654L27.2011 14.3865C27.9886 15.174 27.4311 16.5203 26.3174 16.5203H25.0674V24.0203C25.0674 25.0149 24.6723 25.9687 23.969 26.6719C23.2658 27.3752 22.3119 27.7703 21.3174 27.7703H20.0674V19.0203C20.0674 18.0638 19.702 17.1434 19.0458 16.4475C18.3896 15.7515 17.4922 15.3327 16.5374 15.2765L16.3174 15.2703H13.8174C12.8228 15.2703 11.869 15.6654 11.1657 16.3686C10.4625 17.0719 10.0674 18.0257 10.0674 19.0203V27.7703H8.81737C7.82281 27.7703 6.86898 27.3752 6.16572 26.6719C5.46246 25.9687 5.06737 25.0149 5.06737 24.0203V16.5203H3.81737C2.70487 16.5203 2.14612 15.174 2.93362 14.3865L14.1836 3.13654C14.418 2.90221 14.7359 2.77056 15.0674 2.77056C15.3988 2.77056 15.7167 2.90221 15.9511 3.13654ZM16.3174 17.7703C16.6489 17.7703 16.9668 17.902 17.2013 18.1364C17.4357 18.3708 17.5674 18.6888 17.5674 19.0203V27.7703H12.5674V19.0203C12.5674 18.7141 12.6798 18.4186 12.8833 18.1898C13.0867 17.961 13.3671 17.8149 13.6711 17.779L13.8174 17.7703H16.3174Z" fill="url(#paint0_linear_1405_82)"/>
<defs>
<linearGradient id="paint0_linear_1405_82" x1="15.0675" y1="2.77056" x2="15.0675" y2="27.7703" gradientUnits="userSpaceOnUse">
<stop stop-color="#71C1FF"/>
<stop offset="1" stop-color="#0073D2"/>
</linearGradient>
</defs>
</svg>
