<svg width="31" height="31" viewBox="0 0 31 31" fill="none" xmlns="http://www.w3.org/2000/svg">
<path fill-rule="evenodd" clip-rule="evenodd" d="M21.3848 4.25C22.0478 4.25 22.6837 4.51339 23.1525 4.98223C23.6214 5.45107 23.8848 6.08696 23.8848 6.75V8H25.1348C25.4663 8 25.7842 8.1317 26.0187 8.36612C26.2531 8.60054 26.3848 8.91848 26.3848 9.25C26.3848 9.58152 26.2531 9.89946 26.0187 10.1339C25.7842 10.3683 25.4663 10.5 25.1348 10.5V24.25C25.4663 24.25 25.7842 24.3817 26.0187 24.6161C26.2531 24.8505 26.3848 25.1685 26.3848 25.5C26.3848 25.8315 26.2531 26.1495 26.0187 26.3839C25.7842 26.6183 25.4663 26.75 25.1348 26.75H17.0098V21.125C17.0098 20.6277 16.8122 20.1508 16.4606 19.7992C16.109 19.4475 15.632 19.25 15.1348 19.25C14.6375 19.25 14.1606 19.4475 13.8089 19.7992C13.4573 20.1508 13.2598 20.6277 13.2598 21.125V26.75H5.13477C4.80325 26.75 4.4853 26.6183 4.25088 26.3839C4.01646 26.1495 3.88477 25.8315 3.88477 25.5C3.88477 25.1685 4.01646 24.8505 4.25088 24.6161C4.4853 24.3817 4.80325 24.25 5.13477 24.25V10.5C4.80325 10.5 4.4853 10.3683 4.25088 10.1339C4.01646 9.89946 3.88477 9.58152 3.88477 9.25C3.88477 8.91848 4.01646 8.60054 4.25088 8.36612C4.4853 8.1317 4.80325 8 5.13477 8H6.38477V6.75C6.38477 6.08696 6.64816 5.45107 7.117 4.98223C7.58584 4.51339 8.22172 4.25 8.88477 4.25H21.3848ZM10.1348 16.75C9.80325 16.75 9.4853 16.8817 9.25088 17.1161C9.01646 17.3505 8.88477 17.6685 8.88477 18V19.25C8.88477 19.5815 9.01646 19.8995 9.25088 20.1339C9.4853 20.3683 9.80325 20.5 10.1348 20.5C10.4663 20.5 10.7842 20.3683 11.0186 20.1339C11.2531 19.8995 11.3848 19.5815 11.3848 19.25V18C11.3848 17.6685 11.2531 17.3505 11.0186 17.1161C10.7842 16.8817 10.4663 16.75 10.1348 16.75ZM20.1348 16.75C19.8286 16.75 19.5331 16.8624 19.3043 17.0659C19.0755 17.2693 18.9293 17.5497 18.8935 17.8538L18.8848 18V19.25C18.8851 19.5686 19.0071 19.875 19.2258 20.1067C19.4445 20.3384 19.7435 20.4778 20.0615 20.4965C20.3796 20.5151 20.6927 20.4117 20.9371 20.2072C21.1814 20.0027 21.3384 19.7126 21.376 19.3962L21.3848 19.25V18C21.3848 17.6685 21.2531 17.3505 21.0187 17.1161C20.7842 16.8817 20.4663 16.75 20.1348 16.75ZM10.1348 11.75C9.8286 11.75 9.53309 11.8624 9.3043 12.0659C9.07551 12.2693 8.92934 12.5497 8.89352 12.8538L8.88477 13V14.25C8.88512 14.5686 9.00711 14.875 9.22583 15.1067C9.44454 15.3384 9.74346 15.4778 10.0615 15.4965C10.3796 15.5151 10.6927 15.4117 10.9371 15.2072C11.1814 15.0027 11.3384 14.7126 11.376 14.3962L11.3848 14.25V13C11.3848 12.6685 11.2531 12.3505 11.0186 12.1161C10.7842 11.8817 10.4663 11.75 10.1348 11.75ZM15.1348 11.75C14.8286 11.75 14.5331 11.8624 14.3043 12.0659C14.0755 12.2693 13.9293 12.5497 13.8935 12.8538L13.8848 13V14.25C13.8851 14.5686 14.0071 14.875 14.2258 15.1067C14.4445 15.3384 14.7435 15.4778 15.0615 15.4965C15.3796 15.5151 15.6927 15.4117 15.9371 15.2072C16.1814 15.0027 16.3384 14.7126 16.376 14.3962L16.3848 14.25V13C16.3848 12.6685 16.2531 12.3505 16.0186 12.1161C15.7842 11.8817 15.4663 11.75 15.1348 11.75ZM20.1348 11.75C19.8032 11.75 19.4853 11.8817 19.2509 12.1161C19.0165 12.3505 18.8848 12.6685 18.8848 13V14.25C18.8848 14.5815 19.0165 14.8995 19.2509 15.1339C19.4853 15.3683 19.8032 15.5 20.1348 15.5C20.4663 15.5 20.7842 15.3683 21.0187 15.1339C21.2531 14.8995 21.3848 14.5815 21.3848 14.25V13C21.3848 12.6685 21.2531 12.3505 21.0187 12.1161C20.7842 11.8817 20.4663 11.75 20.1348 11.75ZM21.3848 6.75H8.88477V8H21.3848V6.75Z" fill="url(#paint0_linear_1405_94)"/>
<defs>
<linearGradient id="paint0_linear_1405_94" x1="15.1348" y1="4.25" x2="15.1348" y2="26.75" gradientUnits="userSpaceOnUse">
<stop stop-color="#71C1FF"/>
<stop offset="1" stop-color="#0073D2"/>
</linearGradient>
</defs>
</svg>
