<svg width="31" height="31" viewBox="0 0 31 31" fill="none" xmlns="http://www.w3.org/2000/svg">
<path d="M13.8848 8H16.3848V5.5H13.8848V8ZM15.1348 15.5C13.5514 15.5 12.041 15.1717 10.6035 14.515C9.16602 13.8583 7.75977 13.1242 6.38477 12.3125V10.5C6.38477 9.8125 6.62977 9.22417 7.11977 8.735C7.60977 8.24583 8.1981 8.00083 8.88477 8H11.3848V4.25C11.3848 3.89583 11.5048 3.59917 11.7448 3.36C11.9848 3.12083 12.2814 3.00083 12.6348 3H17.6348C17.9889 3 18.286 3.12 18.526 3.36C18.766 3.6 18.8856 3.89667 18.8848 4.25V8H21.3848C22.0723 8 22.661 8.245 23.151 8.735C23.641 9.225 23.8856 9.81333 23.8848 10.5V12.3125C22.5098 13.125 21.1035 13.8596 19.666 14.5163C18.2285 15.1729 16.7181 15.5008 15.1348 15.5ZM8.88477 26.75C8.19727 26.75 7.60893 26.5054 7.11977 26.0163C6.6306 25.5271 6.3856 24.9383 6.38477 24.25V15.125C7.55143 15.8333 8.75477 16.4375 9.99477 16.9375C11.2348 17.4375 12.5314 17.7708 13.8848 17.9375V18C13.8848 18.3542 14.0048 18.6513 14.2448 18.8913C14.4848 19.1313 14.7814 19.2508 15.1348 19.25C15.4881 19.2492 15.7852 19.1292 16.026 18.89C16.2668 18.6508 16.3864 18.3542 16.3848 18V17.9375C17.7389 17.7708 19.036 17.4375 20.276 16.9375C21.516 16.4375 22.7189 15.8333 23.8848 15.125V24.25C23.8848 24.9375 23.6402 25.5263 23.151 26.0163C22.6618 26.5063 22.0731 26.7508 21.3848 26.75C21.3848 27.1042 21.2648 27.4012 21.0248 27.6412C20.7848 27.8812 20.4881 28.0008 20.1348 28C19.8014 28 19.5673 27.8487 19.4323 27.5462C19.2973 27.2437 19.1148 26.9783 18.8848 26.75H11.3848C11.3848 27.1042 11.2648 27.4012 11.0248 27.6412C10.7848 27.8812 10.4881 28.0008 10.1348 28C9.80143 28 9.56727 27.8487 9.43227 27.5462C9.29727 27.2437 9.11477 26.9783 8.88477 26.75Z" fill="url(#paint0_linear_1405_86)"/>
<defs>
<linearGradient id="paint0_linear_1405_86" x1="15.1348" y1="3" x2="15.1348" y2="28" gradientUnits="userSpaceOnUse">
<stop stop-color="#71C1FF"/>
<stop offset="1" stop-color="#0073D2"/>
</linearGradient>
</defs>
</svg>
