<svg width="31" height="31" viewBox="0 0 31 31" fill="none" xmlns="http://www.w3.org/2000/svg">
<path fill-rule="evenodd" clip-rule="evenodd" d="M20.1348 5.5H5.13477C4.47172 5.5 3.83584 5.76339 3.367 6.23223C2.89816 6.70107 2.63477 7.33696 2.63477 8V23C2.63477 23.663 2.89816 24.2989 3.367 24.7678C3.83584 25.2366 4.47172 25.5 5.13477 25.5H20.1348C20.1348 25.1685 20.2665 24.8505 20.5009 24.6161C20.7353 24.3817 21.0532 24.25 21.3848 24.25C21.7163 24.25 22.0342 24.3817 22.2687 24.6161C22.5031 24.8505 22.6348 25.1685 22.6348 25.5H25.1348C25.7978 25.5 26.4337 25.2366 26.9025 24.7678C27.3714 24.2989 27.6348 23.663 27.6348 23V8C27.6348 7.33696 27.3714 6.70107 26.9025 6.23223C26.4337 5.76339 25.7978 5.5 25.1348 5.5H22.6348C22.6348 5.83152 22.5031 6.14946 22.2687 6.38388C22.0342 6.6183 21.7163 6.75 21.3848 6.75C21.0532 6.75 20.7353 6.6183 20.5009 6.38388C20.2665 6.14946 20.1348 5.83152 20.1348 5.5ZM21.3848 11.7513C21.7163 11.7513 22.0342 11.6196 22.2687 11.3851C22.5031 11.1507 22.6348 10.8328 22.6348 10.5013V10.5C22.6348 10.1685 22.5031 9.85054 22.2687 9.61612C22.0342 9.3817 21.7163 9.25 21.3848 9.25C21.0532 9.25 20.7353 9.3817 20.5009 9.61612C20.2665 9.85054 20.1348 10.1685 20.1348 10.5V10.5013C20.1348 10.8328 20.2665 11.1507 20.5009 11.3851C20.7353 11.6196 21.0532 11.7513 21.3848 11.7513ZM22.6348 15.5013C22.6348 15.8328 22.5031 16.1507 22.2687 16.3851C22.0342 16.6196 21.7163 16.7513 21.3848 16.7513C21.0532 16.7513 20.7353 16.6196 20.5009 16.3851C20.2665 16.1507 20.1348 15.8328 20.1348 15.5013V15.5C20.1348 15.1685 20.2665 14.8505 20.5009 14.6161C20.7353 14.3817 21.0532 14.25 21.3848 14.25C21.7163 14.25 22.0342 14.3817 22.2687 14.6161C22.5031 14.8505 22.6348 15.1685 22.6348 15.5V15.5013ZM21.3848 21.7512C21.7163 21.7512 22.0342 21.6196 22.2687 21.3851C22.5031 21.1507 22.6348 20.8328 22.6348 20.5012C22.6348 20.1697 22.5031 19.8505 22.2687 19.6161C22.0342 19.3817 21.7163 19.25 21.3848 19.25C21.0532 19.25 20.7353 19.3817 20.5009 19.6161C20.2665 19.8505 20.1348 20.1685 20.1348 20.5C20.1348 20.8315 20.2665 21.1507 20.5009 21.3851C20.7353 21.6196 21.0532 21.7512 21.3848 21.7512ZM17.4248 12.4438C17.6088 12.1679 17.6756 11.8303 17.6107 11.5052C17.5458 11.18 17.3543 10.894 17.0785 10.71C16.8027 10.526 16.4651 10.4591 16.1399 10.5241C15.8148 10.589 15.5288 10.7804 15.3448 11.0562L11.191 17.2875L9.76852 15.8663C9.53276 15.6386 9.21701 15.5126 8.88926 15.5154C8.56152 15.5183 8.248 15.6497 8.01624 15.8815C7.78448 16.1132 7.65302 16.4268 7.65017 16.7545C7.64733 17.0822 7.77332 17.398 8.00102 17.6337L10.501 20.1337C10.6318 20.2647 10.79 20.3651 10.9642 20.4275C11.1384 20.4899 11.3243 20.5128 11.5085 20.4947C11.6927 20.4765 11.8705 20.4176 12.0292 20.3224C12.1879 20.2271 12.3234 20.0978 12.426 19.9438L17.426 12.4438H17.4248Z" fill="url(#paint0_linear_1405_106)"/>
<defs>
<linearGradient id="paint0_linear_1405_106" x1="15.1348" y1="5.5" x2="15.1348" y2="25.5" gradientUnits="userSpaceOnUse">
<stop stop-color="#71C1FF"/>
<stop offset="1" stop-color="#0073D2"/>
</linearGradient>
</defs>
</svg>
