<svg width="19" height="19" viewBox="0 0 19 19" fill="none" xmlns="http://www.w3.org/2000/svg">
<path d="M0.5 1.625C0.5 1.00273 1.00273 0.5 1.625 0.5H17.375C17.9973 0.5 18.5 1.00273 18.5 1.625C18.5 2.24727 17.9973 2.75 17.375 2.75V16.25C17.9973 16.25 18.5 16.7527 18.5 17.375C18.5 17.9973 17.9973 18.5 17.375 18.5H11.1875V16.8125C11.1875 15.8809 10.4316 15.125 9.5 15.125C8.56836 15.125 7.8125 15.8809 7.8125 16.8125V18.5H1.625C1.00273 18.5 0.5 17.9973 0.5 17.375C0.5 16.7527 1.00273 16.25 1.625 16.25V2.75C1.00273 2.75 0.5 2.24727 0.5 1.625ZM3.875 4.4375V5.5625C3.875 5.87187 4.12812 6.125 4.4375 6.125H5.5625C5.87187 6.125 6.125 5.87187 6.125 5.5625V4.4375C6.125 4.12812 5.87187 3.875 5.5625 3.875H4.4375C4.12812 3.875 3.875 4.12812 3.875 4.4375ZM8.9375 3.875C8.62813 3.875 8.375 4.12812 8.375 4.4375V5.5625C8.375 5.87187 8.62813 6.125 8.9375 6.125H10.0625C10.3719 6.125 10.625 5.87187 10.625 5.5625V4.4375C10.625 4.12812 10.3719 3.875 10.0625 3.875H8.9375ZM12.875 4.4375V5.5625C12.875 5.87187 13.1281 6.125 13.4375 6.125H14.5625C14.8719 6.125 15.125 5.87187 15.125 5.5625V4.4375C15.125 4.12812 14.8719 3.875 14.5625 3.875H13.4375C13.1281 3.875 12.875 4.12812 12.875 4.4375ZM4.4375 7.25C4.12812 7.25 3.875 7.50313 3.875 7.8125V8.9375C3.875 9.24687 4.12812 9.5 4.4375 9.5H5.5625C5.87187 9.5 6.125 9.24687 6.125 8.9375V7.8125C6.125 7.50313 5.87187 7.25 5.5625 7.25H4.4375ZM8.375 7.8125V8.9375C8.375 9.24687 8.62813 9.5 8.9375 9.5H10.0625C10.3719 9.5 10.625 9.24687 10.625 8.9375V7.8125C10.625 7.50313 10.3719 7.25 10.0625 7.25H8.9375C8.62813 7.25 8.375 7.50313 8.375 7.8125ZM13.4375 7.25C13.1281 7.25 12.875 7.50313 12.875 7.8125V8.9375C12.875 9.24687 13.1281 9.5 13.4375 9.5H14.5625C14.8719 9.5 15.125 9.24687 15.125 8.9375V7.8125C15.125 7.50313 14.8719 7.25 14.5625 7.25H13.4375ZM12.0312 14C12.4988 14 12.8855 13.6168 12.7695 13.1633C12.3969 11.7043 11.075 10.625 9.5 10.625C7.925 10.625 6.59961 11.7043 6.23047 13.1633C6.11445 13.6133 6.50469 14 6.96875 14H12.0312Z" fill="#1CA8CB"/>
</svg>
