<svg width="19" height="19" viewBox="0 0 19 19" fill="none" xmlns="http://www.w3.org/2000/svg">
<path d="M9.4999 2.1875C9.4999 1.73995 9.67769 1.31072 9.99416 0.994257C10.3106 0.67779 10.7399 0.5 11.1874 0.5C11.635 0.5 12.0642 0.67779 12.3806 0.994257C12.6971 1.31072 12.8749 1.73995 12.8749 2.1875C12.8749 2.63505 12.6971 3.06428 12.3806 3.38074C12.0642 3.69721 11.635 3.875 11.1874 3.875C10.7399 3.875 10.3106 3.69721 9.99416 3.38074C9.67769 3.06428 9.4999 2.63505 9.4999 2.1875ZM11.3034 8.61055L10.6319 11.293L12.3792 13.0402C12.6956 13.3566 12.8749 13.7855 12.8749 14.232V17.375C12.8749 17.9973 12.3722 18.5 11.7499 18.5C11.1276 18.5 10.6249 17.9973 10.6249 17.375V14.4676L8.02686 11.8695C7.47139 11.3141 7.24639 10.5125 7.43272 9.74961L8.1499 6.79648C8.4417 5.59766 9.65108 4.86641 10.8464 5.16523C11.5144 5.33398 12.098 5.7418 12.4776 6.31484L13.4761 7.8125H14.5624V6.96875C14.5624 6.50117 14.9386 6.125 15.4062 6.125C15.8737 6.125 16.2499 6.50117 16.2499 6.96875V8.93047C16.2499 8.93398 16.2499 8.9375 16.2499 8.9375V8.94453V17.6562C16.2499 18.1238 15.8737 18.5 15.4062 18.5C14.9386 18.5 14.5624 18.1238 14.5624 17.6562V10.0625H13.1772C12.6147 10.0625 12.0874 9.78125 11.7745 9.31016L11.3069 8.60703L11.3034 8.61055ZM5.60108 17.0902L6.87373 12.2422C6.9792 12.3898 7.09873 12.5305 7.22881 12.6605L8.70186 14.1336L7.77373 17.6598C7.61553 18.2609 7.00029 18.6195 6.39912 18.4613C5.79795 18.3031 5.43936 17.6879 5.59756 17.0867L5.60108 17.0902ZM7.55225 4.92617L6.31475 9.86914C6.20928 10.2945 5.79092 10.5687 5.3585 10.4984L3.67451 10.2172C3.18233 10.1363 2.86944 9.64414 2.99951 9.1625L3.87139 5.94922C4.20537 4.72578 5.31631 3.875 6.58545 3.875H6.73311C7.28154 3.875 7.68584 4.3918 7.55225 4.92266V4.92617Z" fill="#1CA8CB"/>
</svg>
