<svg width="19" height="19" viewBox="0 0 19 19" fill="none" xmlns="http://www.w3.org/2000/svg">
<path d="M13.5117 5.25C13.5117 6.95625 11.2273 9.99687 10.2242 11.25C9.98359 11.55 9.53672 11.55 9.29922 11.25C8.29609 9.99687 6.01172 6.95625 6.01172 5.25C6.01172 3.17812 7.68984 1.5 9.76172 1.5C11.8336 1.5 13.5117 3.17812 13.5117 5.25ZM13.7617 7.7625C13.8711 7.54688 13.9711 7.33125 14.0617 7.11875C14.0773 7.08125 14.093 7.04063 14.1086 7.00313L17.7336 5.55312C18.2273 5.35625 18.7617 5.71875 18.7617 6.25V14.7125C18.7617 15.0187 18.5742 15.2937 18.2898 15.4094L13.7617 17.2188V7.7625ZM5.06172 5.82188C5.13672 6.2625 5.28672 6.70625 5.46172 7.11875C5.55234 7.33125 5.65234 7.54688 5.76172 7.7625V15.6187L1.78984 17.2094C1.29609 17.4062 0.761719 17.0437 0.761719 16.5125V8.05C0.761719 7.74375 0.949219 7.46875 1.23359 7.35313L5.06484 5.82188H5.06172ZM11.0055 11.875C11.4398 11.3313 12.1211 10.4469 12.7617 9.46875V17.2594L6.76172 15.5437V9.46875C7.40234 10.4469 8.08359 11.3313 8.51797 11.875C9.15859 12.675 10.3648 12.675 11.0055 11.875ZM9.76172 6.25C10.0932 6.25 10.4112 6.1183 10.6456 5.88388C10.88 5.64946 11.0117 5.33152 11.0117 5C11.0117 4.66848 10.88 4.35054 10.6456 4.11612C10.4112 3.8817 10.0932 3.75 9.76172 3.75C9.4302 3.75 9.11226 3.8817 8.87784 4.11612C8.64341 4.35054 8.51172 4.66848 8.51172 5C8.51172 5.33152 8.64341 5.64946 8.87784 5.88388C9.11226 6.1183 9.4302 6.25 9.76172 6.25Z" fill="#1CA8CB"/>
</svg>
