<svg width="10" height="15" viewBox="0 0 10 15" fill="none" xmlns="http://www.w3.org/2000/svg">
<path d="M4.77002 0.299805C2.28939 0.299805 0.27002 2.31918 0.27002 4.7998C0.27002 7.28043 2.28939 9.2998 4.77002 9.2998C7.25064 9.2998 9.27002 7.28043 9.27002 4.7998C9.27002 2.31918 7.25064 0.299805 4.77002 0.299805ZM4.77002 7.4998C3.77721 7.4998 2.97002 6.69262 2.97002 5.6998C2.97002 4.70699 3.77721 3.8998 4.77002 3.8998C5.76283 3.8998 6.57002 4.70699 6.57002 5.6998C6.57002 6.69262 5.76283 7.4998 4.77002 7.4998ZM4.77002 2.9998C4.02471 2.9998 3.42002 3.60449 3.42002 4.3498C3.42002 5.09512 4.02471 5.6998 4.77002 5.6998C5.51533 5.6998 6.12002 5.09512 6.12002 4.3498C6.12002 3.60449 5.51533 2.9998 4.77002 2.9998ZM4.77002 11.9998C4.02471 11.9998 3.42002 12.6045 3.42002 13.3498C3.42002 14.0951 4.02471 14.6998 4.77002 14.6998C5.51533 14.6998 6.12002 14.0951 6.12002 13.3498C6.12002 12.6045 5.51533 11.9998 4.77002 11.9998Z" fill="#1CA8CB"/>
</svg>
