<svg width="24" height="15" viewBox="0 0 24 15" fill="none" xmlns="http://www.w3.org/2000/svg">
<path d="M0.625 3C0.625 1.75898 1.63398 0.75 2.875 0.75H9.625H11.3125H11.875H20.875C22.116 0.75 23.125 1.75898 23.125 3V12C23.125 13.241 22.116 14.25 20.875 14.25H11.875H11.3125H9.625H2.875C1.63398 14.25 0.625 13.241 0.625 12V3ZM11.875 3V12H20.875V3H11.875ZM6.89336 4.68398C6.78086 4.43086 6.52773 4.26562 6.25 4.26562C5.97227 4.26562 5.71914 4.43086 5.60664 4.68398L3.35664 9.74648C3.19844 10.1016 3.36016 10.5164 3.71523 10.6746C4.07031 10.8328 4.48516 10.6711 4.64336 10.316L4.95625 9.60938H7.54375L7.85664 10.316C8.01484 10.6711 8.42969 10.8293 8.78477 10.6746C9.13984 10.5199 9.29805 10.1016 9.14336 9.74648L6.89336 4.68398ZM6.25 6.69844L6.91797 8.20312H5.58203L6.25 6.69844ZM16.375 4.26562C16.7617 4.26562 17.0781 4.58203 17.0781 4.96875V5.10938H18.625H19.1875C19.5742 5.10938 19.8906 5.42578 19.8906 5.8125C19.8906 6.19922 19.5742 6.51562 19.1875 6.51562H19.1172L19.0609 6.67383C18.748 7.53164 18.2734 8.31211 17.6687 8.97305C17.7004 8.99414 17.732 9.01172 17.7637 9.0293L18.4281 9.42656C18.7621 9.62695 18.8676 10.0594 18.6707 10.3898C18.4738 10.7203 18.0379 10.8293 17.7074 10.6324L17.043 10.2352C16.8848 10.1402 16.7336 10.0418 16.5824 9.93633C16.2098 10.2 15.8125 10.4285 15.3871 10.6184L15.2605 10.6746C14.9055 10.8328 14.4906 10.6711 14.3324 10.316C14.1742 9.96094 14.3359 9.54609 14.691 9.38789L14.8176 9.33164C15.0426 9.22969 15.2605 9.11719 15.468 8.98711L15.0391 8.5582C14.7648 8.28398 14.7648 7.8375 15.0391 7.56328C15.3133 7.28906 15.7598 7.28906 16.034 7.56328L16.5473 8.07656L16.5648 8.09414C17.0008 7.63359 17.3559 7.09922 17.6125 6.51211L16.375 6.51562H13.8438C13.457 6.51562 13.1406 6.19922 13.1406 5.8125C13.1406 5.42578 13.457 5.10938 13.8438 5.10938H15.6719V4.96875C15.6719 4.58203 15.9883 4.26562 16.375 4.26562Z" fill="#1CA8CB"/>
</svg>
