<svg width="19" height="19" viewBox="0 0 19 19" fill="none" xmlns="http://www.w3.org/2000/svg">
<path d="M9.5 1.5C13.7 1.5 16.5 2.6 16.5 4V4.5V5.5C17.0531 5.5 17.5 5.94688 17.5 6.5V8.5C17.5 9.05312 17.0531 9.5 16.5 9.5V14.5C16.5 15.0531 16.0531 15.5 15.5 15.5V16.5C15.5 17.0531 15.0531 17.5 14.5 17.5H13.5C12.9469 17.5 12.5 17.0531 12.5 16.5V15.5H6.5V16.5C6.5 17.0531 6.05312 17.5 5.5 17.5H4.5C3.94688 17.5 3.5 17.0531 3.5 16.5V15.5C2.94687 15.5 2.5 15.0531 2.5 14.5V9.5C1.94687 9.5 1.5 9.05312 1.5 8.5V6.5C1.5 5.94688 1.94687 5.5 2.5 5.5V4.5V4C2.5 2.6 5.3 1.5 9.5 1.5ZM4.5 6.5V9.5C4.5 10.0531 4.94688 10.5 5.5 10.5H9V5.5H5.5C4.94688 5.5 4.5 5.94688 4.5 6.5ZM10 10.5H13.5C14.0531 10.5 14.5 10.0531 14.5 9.5V6.5C14.5 5.94688 14.0531 5.5 13.5 5.5H10V10.5ZM5 14C5.26522 14 5.51957 13.8946 5.70711 13.7071C5.89464 13.5196 6 13.2652 6 13C6 12.7348 5.89464 12.4804 5.70711 12.2929C5.51957 12.1054 5.26522 12 5 12C4.73478 12 4.48043 12.1054 4.29289 12.2929C4.10536 12.4804 4 12.7348 4 13C4 13.2652 4.10536 13.5196 4.29289 13.7071C4.48043 13.8946 4.73478 14 5 14ZM14 14C14.2652 14 14.5196 13.8946 14.7071 13.7071C14.8946 13.5196 15 13.2652 15 13C15 12.7348 14.8946 12.4804 14.7071 12.2929C14.5196 12.1054 14.2652 12 14 12C13.7348 12 13.4804 12.1054 13.2929 12.2929C13.1054 12.4804 13 12.7348 13 13C13 13.2652 13.1054 13.5196 13.2929 13.7071C13.4804 13.8946 13.7348 14 14 14ZM12.5 4C12.5 3.725 12.275 3.5 12 3.5H7C6.725 3.5 6.5 3.725 6.5 4C6.5 4.275 6.725 4.5 7 4.5H12C12.275 4.5 12.5 4.275 12.5 4Z" fill="#1CA8CB"/>
</svg>
